<?xml version="1.0" standalone="no"?>
<!DOCTYPE svg PUBLIC "-//W3C//DTD SVG 1.1//EN" "http://www.w3.org/Graphics/SVG/1.1/DTD/svg11.dtd">
<svg xmlns="http://www.w3.org/2000/svg">
<metadata>Generated by Fontastic.me</metadata>
<defs>
<font id="untitled-font-10" horiz-adv-x="512">
<font-face font-family="untitled-font-10" units-per-em="512" ascent="480" descent="-32"/>
<missing-glyph horiz-adv-x="512" />

<glyph unicode="&#97;" d="M196 316c15 0 30-15 60-15 30 0 45 15 60 15 45 0 15-30 0-45 0-150 120-225 120-255l-360 0c0 30 120 105 120 255-15 15-45 45 0 45z m75 15c0-8-7-15-15-15-8 0-15 7-15 15 0 8 7 15 15 15 8 0 15-7 15-15z m15 135c0-17-13-30-30-30-17 0-30 13-30 30 0 17 13 30 30 30 17 0 30-13 30-30z m-45-75c0-17-13-30-30-30-17 0-30 13-30 30 0 17 13 30 30 30 17 0 30-13 30-30z m60-15c0-8-7-15-15-15-8 0-15 7-15 15 0 8 7 15 15 15 8 0 15-7 15-15z"/>
<glyph unicode="&#98;" d="M366 435c0 0 0 0 0 0 27 13 59 21 114 8-26 79-95 54-139 7 0 0 0 0 0 0-102 56-173 32-231-32 13-2 26-4 38-7-22-11-41-30-57-57l0 0c-42-73-62-198-24-265l64-47c88-19 212 50 260 132 16 28 23 55 23 81 8-9 16-17 24-26 32 80 20 147-72 206z m41-173c-5 5-10 9-14 14 4-5 9-9 14-14z m-58 184c1-1 3-2 5-3-2 1-4 2-5 3-1 0-3 1-4 2 1-1 3-2 4-2z m13-8c0 0 0 0 0 0 0 0 0 0 0 0z m-4 2c-1 1-1 1-2 1 1 0 1 0 2-1z m-210-29c7-2 13-3 19-5-6 2-12 3-19 5z m93-31c-6 2-12 5-17 7 5-2 11-5 17-7z m-18 7c-2 2-5 3-8 4 3-1 6-2 8-4z m-9 4c-6 2-12 4-18 6 6-2 12-4 18-6z m-18 7c-3 1-6 2-9 3 3-1 6-2 9-3z m-9 3c-7 2-13 3-19 5 6-2 12-3 19-5z m161-87c3-2 5-4 8-6-3 2-5 4-8 6z m-106 66c5-3 11-6 17-9-6 3-12 6-17 9z m17-9c3-1 5-3 8-4-3 1-5 3-8 4z m9-4c5-3 11-6 16-9-5 3-11 6-16 9z m16-9c3-2 6-4 8-5-2 1-5 3-8 5z m9-5c5-4 10-7 16-10-6 3-11 6-16 10z m16-11c5-3 10-7 16-10-6 3-11 7-16 10z m16-10c2-2 5-4 7-6-2 2-5 4-7 6z m8-6c5-4 10-8 15-12-5 4-10 8-15 12z m52-43c3-3 5-5 7-7-2 2-4 4-7 7z m-29 25c5-4 10-8 14-12-4 4-9 8-14 12z m15-13c5-4 9-8 14-12-5 4-9 8-14 12z m36-33c2-2 4-5 7-7-3 2-5 5-7 7z m-358-241c27 12 55 18 82 21l-64 47c0-24-8-46-18-68z"/>
<glyph unicode="&#99;" d="M359 427c64-63 53-111 10-149-18 100-94 66-109 212-15-146-91-112-110-212-42 38-53 86 11 149-142-82-91-186 13-272l0 0c0 0 0 0 0 0 27-32 66-58 86-132 19 74 58 100 85 132l0 0c105 86 156 190 14 272z m-211-162c0 0 0 0 0 0 0 0 0 0 0 0z m2-64c0 0 0 0 0 0 0 0 0 0 0 0z m-1 3c0 0 0 0 0 0 0 0 0 0 0 0z m0 3c0 0 0 0 0 0 0 0 0 0 0 0z m-1 3c0 0 0 0 0 0 0 0 0 0 0 0z m0 3c0 0 0 0 0 0 0 0 0 0 0 0z m-1 3c0 0 0 0 0 0 0 0 0 0 0 0z m0 3c0 0 0 0 0 1 0-1 0-1 0-1z m0 4c0 0 0 0 0 0 0 0 0 0 0 0z m0 3c0 0-1 0-1 0 0 0 1 0 1 0z m0 20c0 0 0 0 0 1 0-1 0-1 0-1z m0 5c0 0 0 0 0 0 0 0 0 0 0 0z m0 5c0 0 0 0 0 0 0 0 0 0 0 0z m1 5c0 0 0 0 0 0 0 0 0 0 0 0z m-2-24c0 0 0 0 0 0 0 0 0 0 0 0z m0-4c0 0 0 0 0 0 0 0 0 0 0 0z m0-4c0 1 0 1 0 1 0 0 0 0 0-1z m27-72c0 0 0 0 0 0 0 0 0 0 0 0z m-22 42c0-1 0-1 0-1 0 0 0 0 0 1z m1-3c0 0 0 0 0 0 0 0 0 0 0 0z m0-3c0 0 0 0 1 0-1 0-1 0-1 0z m1-3c0 0 0 0 0 0 0 0 0 0 0 0z m1-2c0 0 0 0 0 0 0 0 0 0 0 0z m1-3c0 0 0 0 0 0 0 0 0 0 0 0z m1-2c0 0 0 0 0 0 0 0 0 0 0 0z m1-2c1 0 1-1 1-1 0 0 0 1-1 1z m2-3c0 0 0 0 0 0 0 0 0 0 0 0z m1-2c0 0 0 0 0 0 0 0 0 0 0 0z m1-2c0 0 0 0 0 0 0 0 0 0 0 0z m1-2c0 0 1-1 1-1 0 0-1 1-1 1z m2-3c0 0 0 0 0 0 0 0 0 0 0 0z m1-2c0 0 0 0 0 0 0 0 0 0 0 0z m2-2c0 0 0 0 0 0 0 0 0 0 0 0z m3-4c0 0 0 0 0 0 0 0 0 0 0 0z m90 256c9-89 56-65 66-130 0 0 0 0 0 0-8 29-34 51-66 51-31 0-57-20-65-47 0 0 0 0 0 0 11 60 56 39 65 126z m-68-143c0-1 0-3 0-4 0-1 0-2 0-3 0 1 0 2 0 3 0 1 0 3 0 4z m3 16c-1-1-1-1-1-2 0 1 0 1 1 2z m-1-3c0-1-1-2-1-2 0 0 1 1 1 2z m-1-3c0-1 0-2 0-3 0 1 0 2 0 3z m-1-4c0 0 0-1 0-2 0 1 0 2 0 2z m0-3c0-1 0-2 0-2 0 0 0 1 0 2z m1-20c0 0 0 0 0 1 6-32 34-56 67-56 34 0 63 27 67 61-2-55-49-53-67-123-18 68-63 68-67 117z m-1 7c0 0 0 0 0 0 0 0 0 0 0 0z m134 19c0 0 0-1 1-1-1 0-1 1-1 1z m1-3c0-1 0-1 0-2 0 1 0 1 0 2z m0-12c0 0 1 1 1 2 0 1-1 2-1 3 0-1 1-2 1-3 0-1-1-2-1-2z m0-4c0 1 0 2 0 2 0 0 0-1 0-2z m0 13c0-1 0-2 0-3 0 1 0 2 0 3z m44-12c0 0 0 0 0 0 0 0 0 0 0 0z m2-19c0 0 0 0 0 0 0 0 0 0 0 0z m0 5c0 0 0 0 0 0 0 0 0 0 0 0z m-1 5c0 0 0 0 0 0 0 0 0 0 0 0z m0 5c0 0 0 0 0 0 0 0 0 0 0 0z m1-35c0 0 0 0 0 0 0 0 0 0 0 0z m0-3c0 0 0 0 0 0 0 0 0 0 0 0z m0-3c0-1 0-1 0-1 0 0 0 0 0 1z m-1-7c0 0 0 0 0 0 0 0 0 0 0 0z m0-3c0 0 0 0 0 0 0 0 0 0 0 0z m-1-3c0 0 0 0 0 0 0 0 0 0 0 0z m-1-3c0 0 0 0 0 0 0 0 0 0 0 0z m0-3c0 0 0 0 0 0 0 0 0 0 0 0z m-13-29c0 0 0 0 0-1 0 1 0 1 0 1z m12 26c0 0 0 0 0 0 0 0 0 0 0 0z m-2-5c0 0 0 0 0 0 0 0 0 0 0 0z m-2-5c0 0 0 0 0 0 0 0 0 0 0 0z m-1-3c0 0 0 0 0 0 0 0 0 0 0 0z m-1-2c0 0 0 0 0 0 0 0 0 0 0 0z m-1-2c0 0 0-1 0-1 0 0 0 1 0 1z m-2-5c0 0 0 0 0 0 0 0 0 0 0 0z m13 57c0 0 0 0 0 0 0 0 0 0 0 0z m0-3c0 0 0 0 0 0 0 0 0 0 0 0z m0 7c0 0 0 0 0 0 0 0 0 0 0 0z"/>
<glyph unicode="&#100;" d="M185 82l-74-73 44 0c17 17 35 34 52 51z m309 240l-116-46-124-124 26-26c38 34 75 66 112 94-29-36-60-74-94-112l26-26 124 124 46 116z m-244 51l0 0c8-65 13-136 16-210l32 32 0 179-49 114-49-114 0-168-68 68-116 47 0 0 46-116 169-169c-8-9-17-18-25-27l44 0 4 4-20 20 26-26 43 0c-69 71-134 144-188 213 77-60 161-135 239-213l45 0-165 165c3 70 8 138 16 201z m-92 2l-59-75 65 33-2-58 34 63 0 44 17 42 9 20-49 52 16-53-94 48 63-77-113-19z m144 7l0-46 32-59-3 86 1-31 65-34-62 77 113 20-113 19 62 77-92-47-9-29 25 81-46-49 11-26z"/>
<glyph unicode="&#101;" d="M493 319l-342 178-17-16c16-23 11-59-15-85-26-26-63-32-86-16l-15-15 177-343 153 89-109 9 55 54-92 7 48 48-82 6 39 40-70 5 35 35-61 5c42 8 79 44 87 87l5-61 35 35 6-70 39 39 6-82 47 47 7-91 55 55 8-107z"/>
<glyph unicode="&#102;" d="M166 496c-8 0-15-7-15-15l0-30 15 0 0-30-60 0c-68 0-75-53-75-75l0-270c0-12-15-30-15-30l0-30 480 0 0 30c0 0-15 18-15 30l0 270c0 22-7 75-75 75l-60 0 0 30 15 0 0 30c0 8-7 15-15 15z m75-45l30 0c15 0 45 0 45-30l-120 0c0 30 30 30 45 30z m-120-90l270 0c19 0 30-11 30-30l0-240c0-8-8-15-15-15l-300 0c-7 0-15 7-15 15l0 240c0 19 11 30 30 30z m210-210l60 0 0-30-60 0z m0 15l0 105c0 38 30 60 30 60 0 0 30-22 30-60l0-105z m-210 0l0 105c0 38 30 60 30 60 0 0 30-22 30-60l0-105z m105 0l0 105c0 38 30 60 30 60 0 0 30-22 30-60l0-105z m0-15l60 0 0-30-60 0z m-105 0l60 0 0-30-60 0c0 0 0 30 0 30z"/>
<glyph unicode="&#103;" d="M462 338l26 2-88 96 20-101 21 2c12-72-2-141-42-193l-257 257 13-13c13 26 8 58-14 80-28 28-73 28-101 0-28-28-28-73 0-101 22-22 54-27 80-15l54-53c-22-20-44-38-68-56l31-30c18 22 37 44 57 65l-15 15 204-203-19 19c-52-40-121-54-193-43l2 22-101 20 96-88 2 26c86-37 177-35 241 12l-45 15 107-37-21 64c45 63 46 153 10 238z m-403 48c-18 17-18 46 0 63 17 17 46 17 63 0 17-17 17-46 0-63-17-17-46-17-63 0z m236-15l-30 30c-17-24-36-46-56-67l20-20c21 20 43 39 66 57z"/>
<glyph unicode="&#104;" d="M476 417c-13 30-41 46-52 34l0 0c-12-12 5-29 6-57-113-84-227-103-340-1 0 28 18 46 6 58l0 0c-12 12-39-4-52-34-43-99-9-359 88-351-22 50-44 108-57 168 27-72 72-135 118-120-32 40-66 87-90 140 35-59 85-105 123-85-30 27-62 58-89 93 40-37 87-61 112-37-20 10-43 22-64 37l-68 30 143-62 137 56-69-29c-19-12-39-23-58-32 25-24 73 0 113 37-27-35-59-66-89-93 38-20 88 26 123 85-24-53-58-100-90-140 45-15 91 48 118 120-13-60-35-118-57-168 97-8 131 252 88 351z m-386-24c-2 1-3 2-5 4 2-2 3-3 5-4z m-16 15c-2 1-3 3-5 5 2-2 3-4 5-5z m11-10c-2 1-4 2-5 4 1-2 3-3 5-4z m-6 5c-1 1-3 3-4 4 1-1 3-3 4-4z m357-4c-2-2-4-3-6-5 2 2 4 3 6 5z m12 9c1 1 3 3 5 5-2-2-4-4-5-5z m-12-9c2 1 4 3 6 4-2-1-4-3-6-4z m6 4c2 2 3 3 5 5-2-2-3-3-5-5z m-182-10c47 0 85 19 85 42 0 23-38 41-85 41-47 0-86-18-86-41 0-23 39-42 86-42z m0 77c35 0 63-14 63-31 0-17-28-31-63-31-35 0-63 14-63 31 0 17 28 31 63 31z"/>
<glyph unicode="&#105;" d="M82 152c123 79 203 162 278 282l62-61c-118-75-202-159-279-281l-61 60c0 0 0 0 0 0z m201 114c-11-11-23-22-34-34 67-44 113-126 158-207l85 87c-82 44-164 89-209 154z m-196 42c40-39 92-45 125-56 18 16 35 34 51 52-11 33-18 84-58 124-59 58-134 79-167 46l0 0c-32-33-11-107 49-166z m-10 128c16 17 60 1 97-35 37-37 53-80 36-97-16-17-60-1-97 36-37 36-53 79-36 96z"/>
<glyph unicode="&#106;" d="M422 275c25 8 50 25 74 51-24 26-49 39-74 43l0 37-302 0 0-27-102 0c19-50 59-84 102-96l0-42 80 0c-14-47-43-86-78-119l-30 0 0-26c0-1 0-1 0-1l0 0 0-35 376 0 0 62-40 0c-39 33-67 72-80 119l74 0z"/>
<glyph unicode="&#107;" d="M247 353c0 42-11 75-33 113 9 22 38 26 53 25 11-51 13-90 8-139m226-99c-1 110-80 182-175 161-17-3-33-10-49-18 0-14-1-29-2-44l-28 1c0 14-1 27-4 39-17 10-35 17-54 21-12 2-24 4-35 3l0 0c-79-2-146-71-144-168 1-110 81-215 177-234 24-5 59-5 75 10 17-13 52-14 77-9 95 21 164 128 162 238z m-155 50c-4-41-24-63-68-56-10 35 26 72 68 56z m-85 42c31-31 26-60-5-88-38 24-30 75 5 88z m-27-89c-40-17-66-1-80 38 37 26 81-1 80-38z m-99-33c25 37 76 27 88-8-33-29-62-23-88 8z m19-90c-4 44 40 69 72 50-5-43-31-57-72-50z m94-46c-30 28-35 57-4 88 34-13 42-64 4-88z m90 47c-41-8-67 5-73 49 31 19 76-5 73-49z m-62 86c18 32 70 32 88-9-32-26-61-26-88 9z"/>
<glyph unicode="&#108;" d="M144 340l-108-77 0 86 141 93 35-68 89 69 36-68 89 67 48-71-2-113-67 79-94-68-34 69-93-65z m0-194l-108-77 0 86 141 93 35-68 89 69 36-68 89 67 48-71-2-113-67 79-94-68-34 69-93-65z"/>
<glyph unicode="&#109;" d="M103 263c0-117 152-244 152-244 0 0 152 127 152 244 0 310-304 304-304 0z m109-128c-19 21-34 49-43 78-15 4-26 18-26 34 0 11 6 22 15 28-2 33 3 65 15 93l14-88c15-4 26-17 26-34 0-11-6-22-15-28z m86 0l14 83c-9 6-14 17-15 28 0 17 11 30 26 34l15 88c12-28 17-60 15-93 8-6 14-17 14-28 0-16-11-30-25-34-10-29-24-57-44-78z"/>
<glyph unicode="&#110;" d="M416 401l8-31-37-8c-20 57-60 104-115 116 38-32 65-73 81-117l24 4-160-25c0 0 0 0 0 0 6 10 9 24 8 40-3 29-23 51-44 49-21-2-36-28-33-57 1-10 4-19 8-27 0 0 0 0 0 0-44-1-76-11-92-38 21-20 62-23 95-18l20-55-53-212 34 0 61 168 110-168 34 0-115 219-4 70 135 27-19-4c15-58 13-120-4-177 44 52 52 130 32 196l-11-2-117-23 0 0 191 38-1 9 0 0 1-9-26-5 8-31 55 46z m-234-78c-1 0-1 0-2 0 1 0 1 0 2 0z m2 0c-1 0-1 0-2 0 1 0 1 0 2 0z m-27 21c0 0 0 0 0 0 0 0 0 0 0 0z m4-7c0 0 0 1 0 1 0 0 0-1 0-1z m-1 3c0 0-1 0-1 0 0 0 1 0 1 0z m-1 1c0 0 0 0 0 0 0 0 0 0 0 0z m3-5c0 0 0 0 1 0-1 0-1 0-1 0z m2-2c0 0 0 0 0 0 0 0 0 0 0 0z m1-1c0 0 0 0 1 0-1 0-1 0-1 0z m14-9c0 0 0 0 1 0-1 0-1 0-1 0z m-12 7c0 0 0 0 0 0 0 0 0 0 0 0z m1-1c0 0 1 0 1 0 0 0-1 0-1 0z m2-1c0 0 1-1 1-1 0 0-1 1-1 1z m2-1c0-1 0-1 0-1 0 0 0 0 0 1z m1-1c1-1 1-1 1-1 0 0 0 0-1 1z m2-1c0-1 1-1 1-1 0 0-1 0-1 1z m2-1c0 0 1-1 1-1 0 0-1 1-1 1z m11-3c0 0 1 0 2 0-1 0-2 0-2 0z m-4 1c1-1 1-1 2-1-1 0-1 0-2 1z m2-1c1 0 1 0 2 0-1 0-1 0-2 0z m4 0c1 0 1 0 2 0 0 0 1 0 2 0-1 0-2 0-2 0-1 0-1 0-2 0z m17 7c0 0 0 0 0 0 0 0 0 0 0 0z m-1-1c0 0 0 0 0-1 0 1 0 1 0 1z m-2-1c0 0 0-1 0-1 0 0 0 1 0 1z m-1-1c0 0-1-1-1-1 0 0 1 1 1 1z m-2-1c0 0 0 0-1-1 1 1 1 1 1 1z m-2-1c0 0 0 0-1 0 1 0 1 0 1 0z m-2-1c0 0 0 0-1 0 1 0 1 0 1 0z m-1 0c-1 0-1 0-2 0 1 0 1 0 2 0z m14 8c0 0 0 1 0 1 0 0 0-1 0-1z m-1-1c0 0 0 0 0 0 0 0 0 0 0 0z m7 8c0 0 0 0 0 0 0 0 0 0 0 0z m-2-2c0 0 0 0 0 0 0 0 0 0 0 0z m-1-1c0 0 0 0 0 0 0 0 0 0 0 0z m-1-2c0 0 0 0 0 0 0 0 0 0 0 0z"/>
<glyph unicode="&#111;" d="M157 259c0-55 44-99 99-99 55 0 99 44 99 99 0 55-44 100-99 100-55 0-99-45-99-100z m99 60c33 0 60-27 60-60 0-33-27-60-60-60-33 0-60 27-60 60 0 33 27 60 60 60z m29-60c0-16-13-29-29-29-16 0-29 13-29 29 0 16 13 29 29 29 16 0 29-13 29-29z m85-78c0 0 0 0 0 0l18-58c36 34 58 83 58 136 0 94-67 171-156 187l-13 42-51 0-24-79 11 35c-84-19-147-95-147-185 0-50 20-96 52-130l-31-104 47 0 38 119-15-47c21-13 45-22 70-26l0-46 52 0 0 98c-8-1-15-2-23-2-10 0-20 1-29 3-20 4-38 13-54 25-15 11-27 25-37 41 0 0 1 0 1 0-12 20-19 44-19 69 0 54 31 101 76 124 0 0 0 0 0 0 19 9 40 14 62 14 18 0 36-3 52-10 51-20 86-70 86-128 0-29-9-55-24-78-10-15-23-27-38-37 0 0 0 0 0 0-16-11-34-18-53-21l0-52c25 3 48 10 70 22l22-68 47 0-48 156c0 0 0 0 0 0z"/>
<glyph unicode="&#112;" d="M76 496c-40-20-45-30-45-30 40-160 5-275-15-375 0 0 10-25 90-45l0 210c0 80-30 240-30 240z m360 0c0 0-30-160-30-240l0-210c80 20 90 45 90 45-20 100-55 215-15 375 0 0-5 10-45 30z m-210-180c-40 0-90-15-90-15l0-270c0 0 50-15 90-15l60 0c40 0 90 15 90 15l0 270c0 0-50 15-90 15z"/>
<glyph unicode="&#113;" d="M345 460c-43-21-72-66-91-121-19 55-47 100-90 121-138 66-190-124-89-205l85 0c0 0-25 44-28 50-5 10-31 78 6 54 51-33 63-149 68-201 6-51 9-120 9-120l79 0c0 0 3 69 9 120 5 52 17 168 67 201 38 24 11-44 7-54-3-6-28-50-28-50l84 0c102 81 49 271-88 205z"/>
<glyph unicode="&#114;" d="M444 92l-44 52-41 6-90 107 86 100-9 8-82-94 0 150-13 0 0-143-75 89-10-9 85-100 0-2-91-106-44-6-44-51 27-13-9-10 9-9 10 11 17-26 44 52-1 44 82 95 0-92-31-35 0-71 31 9 0-18 13 0 0 18 30-9 0 71-30 34 0 99 83-98-1-47 44-52 17 27 11-13 10 8-10 13z m-293 249l-9 51 49-17 23 10-96 34 19-100z m228-22l18 100-95-34 24-11 50 18-10-53z m-122 137l23-39 28-8-51 87-50-87 28 8z"/>
<glyph unicode="&#115;" d="M267 281l-5-22 32 124-17 17-17-37 0 54-24 24-12-20-2 34-39 39-34-127 4 1-18-5 14 4 7 26-67 67-31-32 67-67-103-28 17-16 51 1-38-15 40-39 33-3-13-8 21-2-17-11 17-18 103 27 241-240 25 0 0 37z m77 23l32-2-18-11 31-31 59 16 54-54 0 56-27 27 15 56-70 70-15-56-38 38-28-28 39-40-59-15z m105-28l18 5-1-1z m-50 75l2 1 68-69 2-1-70 70-13-4z m-227-303l2-2-2 0-1 0 3 0-70 70 68-68 21 78-14 14-12-20-3 34-41 42-21-80 6 24-38 38-29-29 40-39 18 5-77-21 54-53 34 0-17-16 64 17-6-2 31-31 57 0-61 61z"/>
<glyph unicode="&#116;" d="M338 397c20-28 12-60-9-74 14 68-120 105-37 173l0 0c-111-14-135-100-95-166-43 17-62 44-44 82-41-22-63-65-62-111 0-36 15-65 37-85-11 29-14 59-7 85 36-50 138 20 148 79-1-64 64-118 112-53 9-35 7-73-2-103 19 20 30 46 31 77 2 45-21 74-72 96z m72-234l-153 118-154-118z m-43 33l0 74-63 0 0-26z m-223-33l0-151 223 0 0 151z m70-108l-37 0 0 35 37 0z m0 61l-37 0 0 36 37 0z m60-61l-37 0 0 35 37 0z m0 61l-37 0 0 36 37 0z m23 36l37 0 0-36-37 0z m38-136l-37 0 0 74 37 0z"/>
<glyph unicode="&#117;" d="M494 150c-30 19-76 45-76 73 0 28 46 55 76 74-34 0-78 11-91 36-12 25 10 58 28 92-29-20-58-46-79-32-21 14-32 66-31 106l0 0c-17-35-39-60-63-60-25 0-47 25-64 59 1-39-10-91-31-105-21-14-49 12-79 32 18-34 43-67 30-92-12-25-59-36-93-36 30-19 79-46 79-74 0-28-49-54-79-73 34 0 81-12 93-36 12-25-9-56-34-86 45 16 66 6 86-10l32 0c-43 35-72 107-72 191 0 119 58 215 131 215 72 0 131-96 131-215 0-84-29-156-72-191l28 0c19 14 39 25 89 9-26 30-42 62-30 87 13 25 57 37 91 36z m-203 153c10 12 16 28 16 47 0 35-23 64-51 64-2 0-4 0-5 0l0 0c-26-3-46-31-46-64 0-19 7-36 16-47-53-10-57-100-57-163l37 0 10-131 94 0 8 131 35 0c0 63 1 154-57 163z"/>
<glyph unicode="&#118;" d="M301 346c10 13 17 32 17 53 0 41-26 74-58 74-2 0-4 0-6 0-30-4-53-36-53-74 0-21 8-40 19-54-61-11-66-114-66-186l43 0 11-150 108 0 10 150 40 0c0 73 1 177-65 187z m97 148c34-22 56-55 56-93 0-37-22-70-55-92 57 17 97 52 97 92 0 41-40 76-98 93z m-41-161c43 12 72 38 72 68 0 31-30 57-73 69 25-16 42-41 42-69 0-27-16-52-41-68z m-11 68c0-20-12-38-30-50 31 9 53 28 53 50 0 22-22 41-53 50 18-12 30-29 30-50z m-280 0c0 38 21 71 55 93-58-17-98-52-98-93 0-40 40-75 98-92-34 22-55 55-55 92z m24 0c0-30 30-56 73-68-25 16-41 41-41 68 0 28 16 53 41 69-43-12-73-38-73-69z m113-50c-18 12-30 30-30 50 0 21 12 38 31 50-32-9-53-28-53-50 0-21 21-41 52-50z"/>
<glyph unicode="&#119;" d="M220 163l132 132-7 7 30 30-43 44-30-30-7 7-6-6c-19 38-15 84 19 142l0 0c-165 66-343-135-286-292 53 31 108 44 150 33l-10-10 7-7-158-158 0-46 42 0 160 161z m269 144c-59-34-105-38-143-18l-116-116c12-42-1-97-33-152 158-57 358 121 292 286z"/>
<glyph unicode="&#120;" d="M481 309c-28 109-125 180-230 177-89 5-178-32-232-103 26 22 57 38 90 47-63-53-95-139-80-225 1 28 8 56 19 81 0 0 0 0 0 0 2-52 19-102 53-144-39 77-23 196 42 242-1 0-2-1-3-1 12 6 24 11 38 14 107 30 216-36 245-147 19-70-1-142-45-192 2 3 5 6 7 9-53 10-53 63 14 115l-49 37c-2-6-4-12-6-17l11-7-204 143c-19 11-31-11-16-20l197-139c-33-49-79-39-99 15-54-46-29-127 23-163 47-33 117-26 148 31 69 58 102 153 77 247z m-224 177c1 0 1-1 1-1 0 0 0 1-1 1z m7-1c0 0 1 0 1 0 0 0-1 0-1 0z m7-1c0 0 0 0 1 0-1 0-1 0-1 0z m9-70c-1 1-3 1-4 2 1-1 3-1 4-2z m-6 3c-1 0-2 1-3 1 1 0 2-1 3-1z m-5 2c-1 1-2 1-3 1 1 0 2 0 3-1z m-4 2c-2 1-3 1-5 2 2-1 3-1 5-2z m-6 2c-1 1-2 1-4 2 2-1 3-1 4-2z m-5 2c-1 1-3 1-4 2 1-1 3-1 4-2z m-22 7c-1 0-2 1-3 1 1 0 2-1 3-1z m17-5c-2 1-3 1-4 1 1 0 2 0 4-1z m-5 2c-2 0-3 1-5 1 2 0 3-1 5-1z m-6 1c-1 1-3 1-4 2 1-1 3-1 4-2z m-119 3c-3-1-7-2-10-3 3 1 7 2 10 3z m54 6c-1 0-3 0-5 0 2 0 4 0 5 0z m-5 0c-2 0-3 0-5 0 2 0 3 0 5 0z m-6 0c-3 0-7 0-10-1 3 1 7 1 10 1z m-10-1c-2 0-4 0-5 0 1 0 3 0 5 0z m-6 0c-2-1-3-1-5-1 2 0 3 0 5 1z m-5-1c-4 0-7-1-11-2 4 1 7 2 11 2z m-11-2c-2 0-3 0-5-1 2 1 3 1 5 1z m-6-1c-1 0-3-1-5-1 2 0 4 1 5 1z m-74-114c0 2 0 4 1 6-1-2-1-4-1-6z m-1-15c0 0 0 1 0 1 0 0 0-1 0-1z m0 4c0 1 0 2 0 3 0-1 0-2 0-3z m0 6c1 1 1 2 1 3 0-1 0-2-1-3z m96 71c0 0 0 0 0 0l0 0c0 0 0 0 0 0z m29 53c3 0 7 0 10 0-3 0-7 0-10 0z m53-6c-1 1-2 1-4 1 2 0 3 0 4-1z m-5 1c-1 1-3 1-5 1 2 0 4 0 5-1z m-5 1c-2 1-3 1-5 1 2 0 3 0 5-1z m-6 1c-1 1-3 1-4 1 1 0 3 0 4-1z m-5 1c-2 0-3 1-5 1 2 0 3-1 5-1z m-5 1c-2 0-4 0-5 0 1 0 3 0 5 0z m-6 0c-1 1-3 1-5 1 2 0 4 0 5-1z m-6 1c-1 0-2 0-4 0 2 0 3 0 4 0z m103 41c0 0 0 0 1 0-1 0-1 0-1 0z m6-1c1 0 1 0 2 0-1 0-1 0-2 0z m7-2c0 0 1 0 1 0 0 0-1 0-1 0z m6-2c1 0 1 0 2 0-1 0-1 0-2 0z m14-4c1 0 1 0 2-1-1 1-1 1-2 1z m6-2c1-1 2-1 2-1 0 0-1 0-2 1z m7-3c0 0 1-1 2-1-1 0-2 1-2 1z m6-3c0 0 1 0 2-1-1 1-2 1-2 1z m6-2c1-1 1-1 2-1-1 0-1 0-2 1z m20-423c0 0-1 0-2-1 1 1 1 1 2 1z m-3 8c0 1 1 2 2 3-1-1-2-2-2-3z m-10-8c-1-1-2-2-2-2 0 0 1 1 2 2z m21 20c-1-1-2-2-3-3 1 1 2 2 3 3z m-3-3c-1-1-2-2-3-3 1 1 2 2 3 3z m-3-3c-1-1-2-2-3-3 1 1 2 2 3 3z m-6-6c-1-1-1-2-2-3 1 1 1 2 2 3z m-3-3c-1-1-1-1-2-2 1 1 1 1 2 2z m-3-3c-1 0-1-1-2-2 1 1 1 2 2 2z m-12-10c-1-1-2-1-3-2 1 1 2 1 3 2z m6 5c-1-1-2-1-2-2 0 1 1 1 2 2z m-3-3c-1 0-2-1-3-1 1 0 2 1 3 1z m-2 135l-12 8z m-8-142c-1-1-2-1-3-2 1 1 3 1 4 2-1-1-3-1-4-2 1 1 2 1 3 2z m3 3c-1-1-1-2-2-2 1 0 1 1 2 2z m22 8c-1 0-2-1-2-1 0 0 1 1 2 1z m-5-2c0-1-1-1-2-2 1 1 2 1 2 2z m-4-3c-1 0-2-1-3-1 1 0 2 1 3 1z m-5-2c-1 0-2-1-3-1 1 0 2 1 3 1z m-5-2c-1-1-2-1-3-1 1 0 2 0 3 1z m26 13c0 0 0 0 1 0-1 0-1 0-1 0z m12 7c0 1 0 1 0 1 0 0 0 0 0-1z m16 12c0 0 0 0 0 0 0 0 0 0 0 0z m-12-9c0 0 0 0 0 1 0-1 0-1 0-1z m4 3c0 0 0 0 0 1 0-1 0-1 0-1z m4 3c0 0 0 0 0 0 0 0 0 0 0 0z"/>
<glyph unicode="&#121;" d="M258 485c-126 0-227-102-227-227 0-125 101-226 227-226 125 0 226 101 226 226 0 125-101 227-226 227z m132-372c34 51 41 122 14 190-10-21-31-35-55-35-34 0-62 27-62 61 0 20 9 37 23 48-9 5-16 14-17 24-5-6-13-10-21-10-15 0-28 13-28 28 0 9 5 17 12 22-16 5-32 7-48 7 16 4 34 7 52 7 108 0 195-88 195-196 0-58-25-111-65-146z"/>
<glyph unicode="&#122;" d="M248 123c65-60 151-99 246-103-4 95-43 181-103 246 7-32 11-66 10-102-5 5-11 11-16 17-16 15-32 31-48 46l27 53-54-27c-19 18-38 35-56 52l25 51-53-26c-18 16-37 32-55 48l21 43-46-23c-17 14-33 28-50 41l18 36-40-20c-18 14-35 27-52 39 12-17 25-34 38-52l-20-41 37 19c13-17 27-33 40-50l-23-47 44 22c16-18 31-36 47-54l-28-57 55 27c16-18 33-36 51-55l-28-54 54 27c22-23 44-45 66-67-38-1-74 3-107 11z"/>
<glyph unicode="&#65;" d="M489 256c0 129-105 234-234 234-129 0-233-105-233-234 0-45 13-88 35-124-11 26-17 55-17 85 0 119 96 216 215 216 119 0 216-97 216-216 0-30-7-59-18-85 23 36 36 78 36 124z m-234 144l-68-198-101 28 0-196 72 76 38-29 14-60 90 0 14 60 38 29 72-76 0 196-101-28z m34-208c0-1 0-2 0-3 0 0 0 0 0-1 0-1 0-2 0-3 0 0 0 0 0 0 0-1 0-2 0-3 0 0 0-1 0-1 0-1 0-2 0-3l-68 0c0 1 0 2 0 3 0 0 0 1 0 1 0 1 0 2 0 3 0 0 0 0 0 1 0 0 0 1 0 2 0 0 0 1 0 1 1 1 1 2 1 3 4 111 62 111 67 0z"/>
<glyph unicode="&#66;" d="M422 124l-16 40-119 107c59 29 126 26 142-52 92 72 73 180 4 277 17-50-19-100-75-52 26-56-28-91-65-58 17-57-17-78-52-73l-67 60c21 18 43 34 68 48l-43 43-59-59c-41 16-71 49-95 93l-31-30c40-20 73-49 94-95l-59-59 43-43c14 25 30 47 49 68l62-68c3-35-18-69-74-51 33-38-2-93-58-67 48-56-2-92-52-75 97-69 205-89 277 4l0 0c-77 16-80 84-52 143l106-118 38-15c-11-7-23-12-37-16l143-56-56 144c-3-15-9-28-16-40z"/>
<glyph unicode="&#67;" d="M473 470c-48-107-125-103-202-65l19 27c-12 19-35 33-56 39l-21-31c-17 12-34 25-51 38l0 0c-2-3-4-6-5-9-34 19-79 28-130 28 50-20 89-47 107-93-1-14 0-28 0-45 6-3 12-6 17-10l-130-191 0 0 0-111 181 259c54-59 61-136-34-196 52-15 100-16 143-6l9 55 37-38c30 17 76 50 96 79l-32 55 55-15c33 52 37 164-3 230z"/>
<glyph unicode="&#68;" d="M459 205c-2 1-4 1-7 2l0 0-74 32c0 0 0 0 0 0l-118 51 0-60 91 16-3-11-12-46-28-1c0 0 0 0 0 0l-48-2 0-83 50-21c0 0 0 0 0 0l74-32 0 0c2-1 4-3 6-4 23-9 57 18 76 62 19 44 16 87-7 97z m1-94c-9-20-23-33-32-29-10 4-10 23-2 43 9 20 24 32 33 28 9-4 10-23 1-42z m-293 366c-48 0-87-20-87-45 0 0 0-1 0-2l0-92c-13-11-25-28-34-48-18-43-16-85 5-96l0 0 2-1c0 0 0 0 0 0l29-12 0-114 0 0c0 0 0 0 0 0l0-1 0 0c2-24 39-43 86-43 46 0 84 19 85 43l1 0 0 362-1 0c0 2 1 3 1 4 0 25-39 45-87 45z m0-6c21 0 39-9 39-19 0-10-18-18-39-18-22 0-39 8-39 18 0 10 17 19 39 19z m-47-264l-8 8-4 5 37 12-47 70-12 18 59 9 11-24 46-95-17-9 0 0-7-3 51-106-39 42z"/>
<glyph unicode="&#69;" d="M201 496c-15 0-20-3-20-20l0-15-45 0c-30 0-35-5-35-35l0-375c0-30 5-35 35-35l240 0c30 0 35 5 35 35l0 375c0 30-5 35-35 35l-45 0 0 15c0 17-5 20-20 20z m-65-105c0 40-5 35 35 35 20 0 155 0 170 0 40 0 35 5 35-35 0-20 0-285 0-305 0-40 5-35-35-35-20 0-150 0-170 0-40 0-35-5-35 35 0 20 0 285 0 305z"/>
<glyph unicode="&#70;" d="M201 496c-15 0-20-3-20-20l0-15-45 0c-30 0-35-5-35-35l0-375c0-30 5-35 35-35l240 0c30 0 35 5 35 35l0 375c0 30-5 35-35 35l-45 0 0 15c0 17-5 20-20 20z m-65-105c0 40-5 35 35 35 20 0 155 0 170 0 40 0 35 5 35-35 0-20 0-285 0-305 0-40 5-35-35-35-20 0-150 0-170 0-40 0-35-5-35 35 0 20 0 285 0 305z m25-250l190 0c6 0 10-4 10-10l0-55c0-6-4-10-10-10l-190 0c-6 0-10 4-10 10l0 55c0 6 4 10 10 10z"/>
<glyph unicode="&#71;" d="M201 496c-15 0-20-3-20-20l0-15-45 0c-30 0-35-5-35-35l0-375c0-30 5-35 35-35l240 0c30 0 35 5 35 35l0 375c0 30-5 35-35 35l-45 0 0 15c0 17-5 20-20 20z m-65-105c0 40-5 35 35 35 20 0 155 0 170 0 40 0 35 5 35-35 0-20 0-285 0-305 0-40 5-35-35-35-20 0-150 0-170 0-40 0-35-5-35 35 0 20 0 285 0 305z m25-160l190 0c6 0 10-4 10-10l0-55c0-6-4-10-10-10l-190 0c-6 0-10 4-10 10l0 55c0 6 4 10 10 10z m0-90l190 0c6 0 10-4 10-10l0-55c0-6-4-10-10-10l-190 0c-6 0-10 4-10 10l0 55c0 6 4 10 10 10z"/>
<glyph unicode="&#72;" d="M201 496c-15 0-20-3-20-20l0-15-45 0c-30 0-35-5-35-35l0-375c0-30 5-35 35-35l240 0c30 0 35 5 35 35l0 375c0 30-5 35-35 35l-45 0 0 15c0 17-5 20-20 20z m-65-105c0 40-5 35 35 35 20 0 155 0 170 0 40 0 35 5 35-35 0-20 0-285 0-305 0-40 5-35-35-35-20 0-150 0-170 0-40 0-35-5-35 35 0 20 0 285 0 305z m25-70l190 0c6 0 10-4 10-10l0-55c0-6-4-10-10-10l-190 0c-6 0-10 4-10 10l0 55c0 6 4 10 10 10z m0-90l190 0c6 0 10-4 10-10l0-55c0-6-4-10-10-10l-190 0c-6 0-10 4-10 10l0 55c0 6 4 10 10 10z m0-90l190 0c6 0 10-4 10-10l0-55c0-6-4-10-10-10l-190 0c-6 0-10 4-10 10l0 55c0 6 4 10 10 10z"/>
<glyph unicode="&#73;" d="M201 496c-15 0-20-3-20-20l0-15-45 0c-30 0-35-5-35-35l0-375c0-30 5-35 35-35l240 0c30 0 35 5 35 35l0 375c0 30-5 35-35 35l-45 0 0 15c0 17-5 20-20 20z m-65-105c0 40-5 35 35 35 20 0 155 0 170 0 40 0 35 5 35-35 0-20 0-285 0-305 0-40 5-35-35-35-20 0-150 0-170 0-40 0-35-5-35 35 0 20 0 285 0 305z m25 20l190 0c6 0 10-4 10-10l0-55c0-6-4-10-10-10l-190 0c-6 0-10 4-10 10l0 55c0 6 4 10 10 10z m0-90l190 0c6 0 10-4 10-10l0-55c0-6-4-10-10-10l-190 0c-6 0-10 4-10 10l0 55c0 6 4 10 10 10z m0-90l190 0c6 0 10-4 10-10l0-55c0-6-4-10-10-10l-190 0c-6 0-10 4-10 10l0 55c0 6 4 10 10 10z m0-90l190 0c6 0 10-4 10-10l0-55c0-6-4-10-10-10l-190 0c-6 0-10 4-10 10l0 55c0 6 4 10 10 10z"/>
<glyph unicode="&#74;" d="M230 496c-14 0-51-12-51-27l0-26-51 0c-29 0-52-24-52-54l0-320c0-29 23-53 52-53l256 0c29 0 52 24 52 53l0 320c0 30-23 54-52 54l-51 0 0 26c0 15-37 27-51 27l-52 0z m26-107l0-133 103 0-103-187 0 134-103 0z"/>
<glyph unicode="&#75;" d="M201 496c-15 0-20-3-20-20l0-15-45 0c-30 0-35-5-35-35l0-375c0-30 5-35 35-35l240 0c30 0 35 5 35 35l0 375c0 30-5 35-35 35l-45 0 0 15c0 17-5 20-20 20z m-65-105c0 40-5 35 35 35 20 0 155 0 170 0 40 0 35 5 35-35 0-20 0-285 0-305 0-40 5-35-35-35-20 0-150 0-170 0-40 0-35-5-35 35 0 20 0 285 0 305z m35-115l170 0c6 0 10-4 10-10l0-50c0-6-4-10-10-10l-170 0c-6 0-10 4-10 10l0 50c0 6 4 10 10 10z"/>
<glyph unicode="&#76;" d="M201 496c-15 0-20-3-20-20l0-15-45 0c-30 0-35-5-35-35l0-375c0-30 5-35 35-35l240 0c30 0 35 5 35 35l0 375c0 30-5 35-35 35l-45 0 0 15c0 17-5 20-20 20z m-65-105c0 40-5 35 35 35 20 0 155 0 170 0 40 0 35 5 35-35 0-20 0-285 0-305 0-40 5-35-35-35-20 0-150 0-170 0-40 0-35-5-35 35 0 20 0 285 0 305z m35-115l170 0c6 0 10-4 10-10l0-50c0-6-4-10-10-10l-170 0c-6 0-10 4-10 10l0 50c0 6 4 10 10 10z m60 60l50 0c6 0 10-4 10-10l0-170c0-6-4-10-10-10l-50 0c-6 0-10 4-10 10l0 170c0 6 4 10 10 10z"/>
<glyph unicode="&#77;" d="M226 496c-25 0-45-13-45-30l0-15-45 0c-30 0-60-30-60-60l0-315c0-30 30-60 60-60l240 0c30 0 60 30 60 60l0 315c0 30-30 60-60 60l-45 0 0 15c0 17-20 30-45 30z m-90-105l240 0 0-315-240 0z m120-30l0-105-75 0 75-150 0 105 75 0z"/>
<glyph unicode="&#78;" d="M499 470c-84-18-155-87-190-171 50-40 34-109-15-135-11 7-23 11-37 11-13 0-26-4-37-11-48 26-65 95-15 135-34 84-105 153-190 171 42-42 53-128 14-174 64-11 75-61 64-138 34 21 75 13 100-30-2-6-3-13-3-20 0-37 30-67 67-67 37 0 67 30 67 67 0 7-1 14-3 20 26 43 67 51 100 30-11 77 1 127 65 138-40 46-29 132 13 174z m-222-383c-21 0-39 18-39 39 0 22 18 40 39 40 5 0 10-1 14-3 0 0 0 0 0 0 2-1 4-2 6-2 0-1 0-1 0-1 1 0 3-2 4-3 0 0 1 0 1 0 0 0 0 0 1-1 0 0 0 0 0 0 1-1 2-2 3-2 0-1 0-1 0-1 0 0 0 0 1-1 0 0 0 0 0 0 1-1 1-2 2-3 0 0 0 0 1 0 0-1 0-1 0-1 0 0 0-1 0-1 1 0 1 0 1 0 0-1 0-1 0-1 1-1 1-1 1-1 0-1 0-1 0-1 1-1 1-1 1-1 0 0 0-1 0-1 0 0 0 0 0-1 1 0 1 0 1-1 0 0 0 0 0 0 0-1 0-1 1-2 0 0 0 0 0 0 0-1 0-1 0-1 0-1 0-1 0-1 0 0 0-1 1-1 0 0 0-1 0-1 0 0 0-1 0-1 0-1 0-1 0-1 0 0 0-1 0-1 0 0 0-1 0-1 0 0 0-1 0-1 0 0 0-1 0-1 0 0 0-1 0-2 0 0 0-1 0-1 0 0 0-1 0-1-1-20-18-37-39-37z"/>
<glyph unicode="&#79;" d="M475 158c18 50 12 101-21 134-10 10-22 18-36 23 26-34 27-84 6-130 1 3 3 6 4 8l-45 34c15 42 11 85-17 113-8 8-19 14-30 19 21-27 22-66 7-103l-37 28c0 0 0 0 0 0 14 36 11 73-13 97-7 7-16 12-25 16 19-25 19-63 1-97 1 3 3 6 4 8l-37 28c11 28 8 57-10 76-6 5-13 9-20 12 15-20 15-49 1-75 1 2 2 4 3 6l-38 28c11 23 9 49-6 64-5 5-10 8-16 10 12-15 12-38 2-59l-31 23c0 0 0 0 0 0 11 19 10 41-3 54-4 3-8 6-12 8 9-13 9-33-1-50l-30 22c1 3 1 5 1 8 0 16-12 29-28 29-16 0-29-13-29-29 0-16 13-29 29-29 2 0 5 1 7 1l22-29c-17-8-35-8-47 1l0 0c2-4 5-8 8-12 12-12 32-13 51-5 0 0 0 0 0 0l23-31c-21-10-43-9-58 2l0 0c2-6 5-11 10-16 15-15 40-17 63-7l29-38c1 0 2 1 3 1-26-13-55-13-74 2l0 0c2-7 7-14 12-20 19-19 49-21 78-9l26-36c1 0 2 0 3 1-32-15-66-14-90 4 4-9 9-18 16-25 23-23 60-27 96-13l27-38c1 1 3 1 4 2-38-16-77-15-105 6 5-11 11-21 20-30 27-27 69-32 110-17l34-45c1 0 2 1 4 1-45-18-91-16-124 9l0 0c5-13 13-26 23-36 32-32 83-39 132-22 0 0 0 0 0 0l11-16 129 0 0 128z m-2-4c0-1 0-1 0-1 0 0 0 0 0 1z m-1-5c-1 0-1-1-1-1 0 0 0 1 1 1z m-5-10c0 0 0 0 0-1 0 1 0 1 0 1z m-2-5c0 0-1 0-1 0 0 0 1 0 1 0z m-3-5c0 0 0 0 0 0 0 0 0 0 0 0z m-3-4c0 0 0-1 0-1 0 0 0 1 0 1z m-6-10c0 0 0 0 0-1 0 1 0 1 0 1z m-3-4c0 0 0-1 0-1 0 0 0 1 0 1z m-3-5c-1 0-1 0-1-1 0 1 0 1 1 1z m-4-4c0-1 0-1-1-1 1 0 1 0 1 1z m-3-5c-1 0-1 0-1 0 0 0 0 0 1 0z m-53 34c-1-2-2-3-3-4-1-1-2-2-4-3 2 1 3 2 4 3 1 1 2 2 3 4z m37 54c-1-3-3-6-4-9 1 3 3 6 4 9z m-4-9c-1-1-2-3-2-4 0 1 1 3 2 4z m-2-4c-2-3-4-6-5-8 1 2 3 5 5 8z m-6-9c0-1-1-3-2-4 1 1 2 3 2 4z m-2-4c-1-1-2-3-3-4 1 1 2 3 3 4z m-3-5c-1-1-2-2-2-3 0 1 1 2 2 3z m-3-4c-2-2-4-4-6-7 2 3 4 5 6 7z m-6-8c-1-1-2-2-3-3 1 1 2 2 3 3z m-3-3c-2-2-3-3-4-4 1 1 2 2 4 4z m-4-5c-1-1-2-2-3-3 1 1 2 2 3 3z m-13 81c0 0 0 0 0 0 0 0 0 0 0 0z m2-92c-1-1-2-2-4-3 2 1 3 2 4 3z m-4-3c-1-1-2-3-4-4 2 1 3 3 4 4z m-4-4c-1-1-2-2-4-3 2 1 3 2 4 3z m-4-3c-2-1-3-2-4-3 1 1 2 2 4 3z m-5-4c-1-1-2-1-3-2 1 1 2 1 3 2z m-4-3c-1-1-2-2-4-3 2 1 3 2 4 3z m-4-3c-1-1-2-1-3-2 1 1 2 1 3 2z m-4-3c-2-1-3-1-4-2 1 1 2 1 4 2z m-4-2c-2-1-3-2-4-3 1 1 2 2 4 3z m0 72c0 1 0 1 1 1-1 0-1 0-1-1z m3 4c0 0 0 0 1 1-1-1-1-1-1-1z m6 7c0 0 0 1 1 1-1 0-1-1-1-1z m3 3c0 1 0 1 0 1 0 0 0 0 0-1z m5 8c0 0 1 0 1 1 0-1-1-1-1-1z m3 4c0 0 0 0 0 0 0 0 0 0 0 0z m5 7c0 1 0 1 0 1 0 0 0 0 0-1z m2 4c0 0 0 0 0 0 0 0 0 0 0 0z m-66-4c1 1 2 2 3 3-1-1-2-2-3-3-1-1-2-2-3-2 1 0 2 1 3 2z m35 53c-1-3-3-7-4-10 1 3 3 7 4 10z m-4-10c-2-4-4-7-6-10 2 3 4 6 6 10z m-6-11c-1-2-3-4-4-6 1 2 3 4 4 6z m-4-7c-1 0-2-1-2-2 0 1 1 2 2 2z m-3-3c-1-2-3-4-4-6 1 2 3 4 4 6z m-5-7c0 0-1-1-2-2 1 1 2 2 2 2z m-2-3c-2-2-3-3-5-5 2 2 3 3 5 5z m-6-6c0-1-1-2-2-2 1 0 2 1 2 2z m28-45c-1 0-1 0-1 0 0 0 0 0 1 0z m-4-3c0 0 0 0-1-1 1 1 1 1 1 1z m-4-3c0-1 0-1 0-1 0 0 0 0 0 1z m-3-3c0 0-1-1-1-1 0 0 1 1 1 1z m-4-3c0 0 0 0 0 0 0 0 0 0 0 0z m-4-3c0 0 0 0-1-1 1 1 1 1 1 1z m-3-3c-1 0-1 0-1 0 0 0 0 0 1 0z m-8-5c-1 0-1 0-1 0 0 0 0 0 1 0z m-8 137c0 0 0 0 0 0 0 0 0 0 0 0z m-1-3c0 0 0-1 0-1 0 0 0 1 0 1z m-2-4c0 0 0 0 0 0 0 0 0 0 0 0z m-3-5c0-1 0-1 0-1 0 0 0 0 0 1z m-2-3c0 0 0-1 0-1 0 0 0 1 0 1z m-2-3c0-1 0-1 0-1 0 0 0 0 0 1z m-2-4c0 0 0 0 0 0 0 0 0 0 0 0z m-2-2c0 0 0-1 0-1 0 0 0 1 0 1z m-2-3c0 0 0 0-1-1 1 1 1 1 1 1z m-2-3c0 0-1 0-1 0 0 0 1 0 1 0z m-11-11c0 0 0 0 0 0 0 0 0 0 0 0 0 0 0 0 0 0 0 0 0 0 0 0z m8 8c0 0 0 0 0-1 0 1 0 1 0 1z m-2-2c0-1-1-1-1-1 0 0 1 0 1 1z m-2-3c-1 0-1-1-1-1 0 0 0 1 1 1z m26-40c0-1-1-2-2-2 1 0 2 1 2 2z m-3-3c-1-1-2-2-3-2 1 0 2 1 3 2z m-3-3c-1-1-2-1-3-2 1 1 2 1 3 2z m-3-3c-1 0-2-1-3-2 1 1 2 2 3 2z m-3-2c-1-1-2-2-3-2 1 0 2 1 3 2z m-4-3c-1 0-2-1-3-2 1 1 2 2 3 2z m-3-2c-2-1-4-3-7-4 3 1 5 3 7 4z m-7-5c-1 0-2-1-3-1 1 0 2 1 3 1z m-3-1c-1-1-3-2-4-2 1 0 3 1 4 2z m-28 91c-1-1-2-1-3-2 0-1-1-2-2-2 1 0 2 1 2 2 1 1 2 1 3 2z m22 31c-1-3-3-5-5-8 2 3 4 5 5 8z m-5-8c0-1-1-2-1-2 0 0 1 1 1 2z m-1-3c-2-2-4-5-6-7 2 2 4 5 6 7z m-6-8c0 0-1-1-2-2 1 1 2 2 2 2z m-2-2c-1-2-2-3-4-5 2 2 3 3 4 5z m-4-5c-1-1-1-2-2-2 1 0 1 1 2 2z m-2-3c-1 0-1-1-2-1 1 0 1 1 2 1z m23-37c0 0-1 0-1 0 0 0 1 0 1 0z m-3-2c0 0 0-1-1-1 1 0 1 1 1 1z m-3-3c0 0 0 0 0 0 0 0 0 0 0 0z m-3-2c0-1 0-1-1-1 1 0 1 0 1 1z m-3-3c0 0 0 0 0 0 0 0 0 0 0 0z m-3-2c0 0 0 0 0 0 0 0 0 0 0 0z m-3-2c0 0 0 0 0-1 0 1 0 1 0 1z m-3-2c0 0 0 0 0-1 0 1 0 1 0 1z m-3-2c0 0 0 0 0 0 0 0 0 0 0 0z m-3-2c0 0 0 0 0 0 0 0 0 0 0 0z m-10 119c0 0 0 0 0 0 0 0 0 0 0 0z m7-69c-1-1-2-1-2-2 0 1 1 1 2 2z m-3-2c-1-1-1-1-2-2 1 1 1 1 2 2z m-2-2c-1-1-2-2-3-2 1 0 2 1 3 2z m-3-3c-1 0-1-1-2-1 1 0 1 1 2 1z m-3-2c0 0-1-1-2-1 1 0 2 1 2 1z m-2-2c-1 0-2-1-3-1 1 0 2 1 3 1z m-3-2c-1 0-1-1-2-1 1 0 1 1 2 1z m-3-2c0 0-1 0-2-1 1 1 2 1 2 1z m-2-1c-1-1-2-1-3-2 1 1 2 1 3 2z m-3-2c-1 0-2-1-2-1 0 0 1 1 2 1z m-3-2c-1 0-1 0-2-1 1 1 1 1 2 1z m-3-1c-1-1-3-2-5-3 2 1 4 2 5 3z m1 57c0 0 0 0 0 0 0 0 0 0 0 0z m2 2c0 0 0 0 0 1 0-1 0-1 0-1z m2 2c0 0 0 0 0 1 0-1 0-1 0-1z m2 3c0 0 0 0 0 0 0 0 0 0 0 0z m1 2c1 0 1 0 1 0 0 0 0 0-1 0z m2 2c0 0 0 0 0 1 0-1 0-1 0-1z m4 5c0 0 0 0 0 0 0 0 0 0 0 0z m1 2c0 0 0 1 0 1 0 0 0-1 0-1z m3 5c0 0 0 0 0 0 0 0 0 0 0 0z m1 3c0 0 0 0 0 0 0 0 0 0 0 0z m-44-4c0 0 0 0 0 0 0 0 0 0 0-1 0 1 0 1 0 1 0 0 0 0 0 0z m20 26c-1-2-2-4-4-6 2 2 3 4 4 6z m-4-7c0 0-1-1-1-1 0 0 1 1 1 1z m-3-3c0-1 0-1-1-2 1 1 1 1 1 2z m-2-3c0-1 0-1 0-1 0 0 0 0 0 1z m-2-4c-1 0-1-1-1-1 0 0 0 1 1 1z m-3-3c0 0 0 0 0-1 0 1 0 1 0 1z m-3-3c0 0 0-1 0-1 0 0 0 1 0 1z m19-29c0 0 0 0-1 0 1 0 1 0 1 0z m-2-2c0 0-1 0-1 0 0 0 1 0 1 0z m-2-2c0 0-1 0-1 0 0 0 1 0 1 0z m-3-2c0 0 0 0 0 0 0 0 0 0 0 0z m-2-1c0-1 0-1 0-1 0 0 0 0 0 1z m-2-2c0 0 0 0 0 0 0 0 0 0 0 0z m-2-2c0 0 0 0 0 0 0 0 0 0 0 0z m-2-1c-1 0-1 0-1 0 0 0 0 0 1 0z m-5-3c0 0 0 0 0 0 0 0 0 0 0 0z m-18 99c0-1-1-1-1-1 0 0 1 0 1 1z m-2-4c0 0 0 0-1-1 1 1 1 1 1 1z m-2-3c0 0 0-1-1-1 1 0 1 1 1 1z m-2-3c0 0-1-1-1-1 0 0 1 1 1 1z m-2-3c0 0-1-1-1-1 0 0 1 1 1 1z m-3-3c0 0 0-1-1-1 1 0 1 1 1 1z m-2-3c-1-1-1-1-1-1 0 0 0 0 1 1z m-4-4c-1-1-1-2-2-2 1 0 1 1 2 2z m-4 38c1 1 1 2 2 3-1-1-1-2-2-3z m1-41c0 0-1-1-2-2 1 1 2 2 2 2z m-3-2c0-1-1-2-2-2 1 0 2 1 2 2z m-3-3c0 0-1-1-1-1 0 0 1 1 1 1z m-2-2c-1 0-2-1-2-1 0 0 1 1 2 1z m-3-2c-1 0-1-1-2-1 1 0 1 1 2 1z m-4-2c0 0 0 0-1 0 1 0 1 0 1 0z m0 33c0 1 1 2 2 2-1 0-2-1-2-2z m2 3c1 1 2 1 2 2 0-1-1-1-2-2z m3 3c0 0 1 1 1 2 0-1-1-2-1-2z m2 2c0 1 1 2 1 2 0 0-1-1-1-2z m2 3c0 1 1 1 1 2 0-1-1-1-1-2z m2 3c0 1 1 1 1 2 0-1-1-1-1-2z m2 3c0 0 0 1 1 2-1-1-1-2-1-2z m-14-17c-1-1-1-2-2-3 1 1 1 2 2 3z m-3-3c-1-1-1-2-2-2 1 0 1 1 2 2z m-3-3c0 0-1-1-2-1 1 0 2 1 2 1z m-3-2c0 0-1-1-2-1 1 0 2 1 2 1z m-2-2c-1-1-2-1-3-2 1 1 2 1 3 2z m-4 53c0 0 0 0 0 0 0 0 0 0 0 0z m-1-2c0 0 0 0 0-1 0 1 0 1 0 1z m-2-2c0-1 0-1 0-1 0 0 0 0 0 1z m-1-3c0 0-1 0-1 0 0 0 1 0 1 0z m-2-2c0 0 0 0-1 0 1 0 1 0 1 0z m-10 22c0 0 1 1 1 1 0 0-1-1-1-1z m0-32c0 0 0 0-1-1 1 1 1 1 1 1z m-2-2c0 0-1 0-1 0 0 0 1 0 1 0z m-2-2c-1 0-1 0-1 0 0 0 0 0 1 0z m-3-1c0 0-1-1-1-1 0 0 1 1 1 1z m-3-2c0 0 0 0 0 0 0 0 0 0 0 0z m2 28c0 0 0 0 0 0 0 0 0 0 0 0z m1 2c1 0 1 0 1 0 0 0 0 0-1 0z m2 1c0 1 0 1 1 1-1 0-1 0-1-1z m1 2c1 1 1 1 1 1 0 0 0 0-1-1z m2 2c0 0 0 1 0 1 0 0 0-1 0-1z m1 2c0 0 0 1 1 1-1 0-1-1-1-1z m-24-22c-1-1-1-1-2-1 1 0 1 0 2 1z m15 11c-1-1-1-1-2-2 1 1 1 1 2 2z m-3-2c0-1 0-1-1-2 1 1 1 1 1 2z m-2-2c0-1 0-1-1-1 1 0 1 0 1 1z m-2-2c0 0-1-1-1-1 0 0 1 1 1 1z m-2-1c0-1-1-1-1-1 0 0 1 0 1 1z m-2-2c0 0-1-1-2-1 1 0 2 1 2 1z m-2-1c0 0-1-1-2-1 1 0 2 1 2 1z m11-17c0 0-1 0-1-1 0 1 1 1 1 1z m16 12c1 0 1 0 1 0 0 1 1 2 2 2-1 0-2-1-2-2 0 0 0 0-1 0z m-2-3c0 1 0 1 1 1-1 0-1 0-1-1z m7 7c-1 0-1-1-2-1 1 0 1 1 2 1z m8-44c-3-2-6-4-9-5 3 1 6 3 9 5z m12-23c0 0-1 0-1 0 0 0 1 0 1 0z m30-38c-1 0-2-1-3-1 1 0 2 1 3 1z m21 16c0 0 0 0 0-1 0 1 0 1 0 1z m-3-3c0 0 0 0 0 0 0 0 0 0 0 0z m-3-2c0 0 0-1 0-1 0 0 0 1 0 1z m-3-3c0 0 0 0-1 0 1 0 1 0 1 0z m-3-2c-1 0-1-1-1-1 0 0 0 1 1 1z m-3-2c0 0-1-1-2-1 1 0 2 1 2 1z m-3-2c-1 0-1-1-2-1 1 0 1 1 2 1z m11-30c0 0 0 0 0 0 0 0 0 0 0 0z m10 4c0 0 0 0-1 0 1 0 1 0 1 0z m20-39c-1 0-2-1-3-1 1 0 2 1 3 1z m22-34c0 0 0 0 0 0 0 0 0 0 0 0z m13 6c0 0-1 0-1 0 0 0 1 0 1 0z m-3-1c0-1-1-1-1-1 0 0 1 0 1 1z m-7-4c0 0 0 0 0 0 0 0 0 0 0 0z m28-37c-1 0-2-1-3-1 1 0 2 1 3 1z m11 5c-1 0-2-1-3-1 1 0 2 1 3 1z m-4-1c-2-2-4-3-6-4 2 1 4 2 6 4z m20-45c0 0-1 0-1 0 0 0 1 0 1 0z m20 10c0 0-1 0-1 0 0 0 1 0 1 0z m-4-2c-1 0-1 0-1 0 0 0 0 0 1 0z m-4-2c0 0-1 0-1-1 0 1 1 1 1 1z m-5-2c0 0 0 0 0 0 0 0 0 0 0 0z m-3-2c-1 0-1 0-1 0 0 0 0 0 1 0z m38-43c-3-1-6-2-8-4 2 2 5 3 8 4z m13 7c-1-1-2-1-4-2 2 1 3 1 4 2z m-4-2c-2-1-3-2-4-3 1 1 2 2 4 3z m-5-3c-1 0-2-1-3-2 1 1 2 2 3 2z m23-53c0 0 0 0 0 0 0 0 0 0 0 0z m25 12c0-1 0-1-1-1 1 0 1 0 1 1z m-5-3c0 0 0 0 0 0 0 0 0 0 0 0z m-10-5c0 0 0 0 0 0 0 0 0 0 0 0z m61 43c0 0 0 0 0 0 0 0 0 0 0 0 0 0 0 0 0 0 0 0 0 0 0 0z m-42-33c1 0 1 0 1 0 0 0 0 0-1 0z m5 3c0 0 0 0 1 0-1 0-1 0-1 0z m10 6c0 1 0 1 1 1-1 0-1 0-1-1z m4 4c1 0 1 0 1 0 0 0 0 0-1 0z m5 4c0 0 1 0 1 0 0 0-1 0-1 0z m4 3c1 0 1 1 1 1 0 0 0-1-1-1z m5 4c1 1 1 1 1 1 0 0 0 0-1-1z m4 4c1 0 1 1 1 1 0 0 0-1-1-1z m14 14c-1-1-1-1-1-1 0 0 0 0 1 1z m-4-4c0-1-1-1-1-1 0 0 1 0 1 1z"/>
<glyph unicode="&#80;" d="M493 230l-2 9 0 20 0-2c0 4-1 7-3 10l-7 66-14-42c-6 3-13 7-22 10l-17 68-13-61c-12 1-24 2-38 2l-17 56-15-59c-12-1-24-3-36-5l-15 36-15-43c-5-1-10-2-16-4l0-3c-1 1-3 1-5 1-1 0-2 0-4 0l1 5c-4 2-9 4-13 6l-5 47-24-35c-12 5-24 9-35 12l-3 58-28-51c-14 3-26 5-38 5l-3 62-29-64c-8-1-16-3-23-6l-6 44-19-63c-1-3-3-6-4-9l0 1-3-19-3-10 1 1-7-43c-7-42 56-94 205-141 6-5 14-9 22-9 9 0 18 5 23 11l0-8c157 20 228 61 228 104l0 43z m-254-90c-4 0-8-1-11-2l0 1c-4 1-9 3-13 4l-4 40-25-30c-12 5-24 10-35 14l-2 68-29-52c-11 6-22 12-31 18l-4 78-25-56c-10 9-18 19-23 27l2 25c35 19 106 16 201-28 0 0 1-1 2-1-30-1-52-11-52-25 0-15 23-28 54-33z m204 48l-15 60-17-77c-10-4-21-8-33-12l-17 52-16-62c-11-3-24-6-36-8l-19 37-12-42c-5-1-10-2-15-2l0-5c-3 4-7 8-12 9l5 49c36-3 65 8 65 24 0 14-21 27-49 32 101 26 170 17 201-7l-2-25c-7-8-16-15-28-23z"/>
<glyph unicode="&#81;" d="M128 88l-26-54 387 0-31 54-18 0c-17 96-30 211-22 279 23 2 40 22 38 51-2 45-52 62-91 35-17 23-48 29-66 9-28 36-84 29-100-12-32 7-56-8-57-38 0-30 18-41 40-39 1-5 2-11 2-16-40 0-80 8-119 19-27-84-39-169-36-256 42-18 87-18 133-18-1-5-2-9-4-14z m-64 57c-2 67 7 122 28 187l0 0c31-7 62-9 93-7 0-54-6-124-17-188-35-2-70-4-104 8z"/>
<glyph unicode="&#82;" d="M466 180l21 1c-11 9-21 16-30 37-6 25-15 49-54 57 2-3 3-5 5-8-9 3-17 3-27 1 0 0 0 1 0 1 0 19-2 37-6 54 15-2 29 0 39 10 0-3-1-7-1-10 28 20 32 38 31 56 4 22 12 31 21 43l-24-5c0 11 3 23 13 35-71-5-36-39-39-105l-43-11c-13 39-35 71-63 89 1 1 3 2 4 4 7-7 16-11 26-11 20 0 36 16 36 35 0 20-16 36-36 36-9 0-17-3-23-8-13 12-35 21-61 21-25 0-48-9-61-21-6 5-14 8-23 8-20 0-36-16-36-36 0-19 16-35 36-35 10 0 20 4 26 11 2-2 3-3 5-4-28-18-51-50-63-89l-45 11c-3 66 33 100-38 105 10-12 13-24 13-35l-23 5c8-11 16-20 20-40-2-18 1-37 31-59-1 3-1 7-1 10 10-10 24-13 39-10-4-17-6-35-6-54 0-1 0-1 0-2-9 3-18 3-27 0 1 3 3 5 5 8-41-8-49-34-55-60-8-18-18-25-29-34l21-1c-5-12-12-22-26-29 66-24 48 39 75 100l37 0c2-24 7-47 16-67-18-5-30-14-35-28-23-24-13-39 7-58 7-19 5-31 3-44l20 17c3-14 2-25 0-36l22 19c7-9 13-19 19-30 22 68-48 77-61 121l29 29c23-47 61-77 105-77 44 0 83 30 105 76l29-28c-14-44-84-53-61-121 5 11 12 21 18 29l22-18c-2 11-4 22 0 36l20-17c-2 13-4 25 2 43 21 20 32 35 9 59-5 14-17 23-34 28 8 20 14 43 16 67l35 0c28-61 9-124 76-100-14 7-21 17-26 29z m-290 26l-10 151 23 8z m41-55l-11 223 23 12z m80 0l-12 235 23-12z m28 214l23-8-10-151z"/>
<glyph unicode="&#83;" d="M426 494l-42 0 5-38-263 0 4 38-42 0-77-346 0-128 66 0 46 409 129 0 0-40c-8-3-13-10-13-18 0-1 0-1 0-2-37-9-52-45-72-117-18-69-48-63-48-109 0-25 55-40 119-43 0-3-1-5-1-8 0-13 11-24 24-24 13 0 23 11 23 24 0 3 0 5-1 8 63 3 115 19 115 43 0 46-29 40-48 109-20 74-36 110-74 117 0 1 0 1 0 2 0 8-5 14-12 17l0 41 128 0 46-408 66 0 0 127z"/>
<glyph unicode="&#84;" d="M257 370c-64 0-117-52-117-116 0-65 53-117 117-117 65 0 117 52 117 117 0 64-52 116-117 116z m2-154c-22 0-40 18-40 40 0 22 18 40 40 40 22 0 40-18 40-40 0-22-18-40-40-40z m14 0c0 0 0 1 0 2-5-1-9-2-14-2-22 0-40 18-40 40 0 12 6 23 14 30 0 1-1 1-2 2-8-8-14-19-14-32 0-24 19-43 43-43 4 0 9 1 13 3z m-16-87c-12 0-23 2-35 5-8-23-25-44-48-58-17-9-36-14-54-14 30-6 62-2 90 14 23 13 40 32 51 53-1 0-3 0-4 0z m-105 191c-25 2-50-4-73-17-28-16-48-42-58-70 10 15 23 28 40 38 24 14 51 18 76 13 3 13 8 25 15 36z m141-186c-12-3-23-5-36-5-1 0-2 0-3 0 11-21 29-40 51-53 28-16 60-20 90-14-18 0-37 5-53 14-24 14-41 35-49 58z m6 122c0-22-18-40-40-40-6 0-11 1-16 3 0 0 0-1-1-2 6-2 11-4 18-4 23 0 42 19 42 43 0 13-6 26-16 33-1 0-2-1-3-2 10-7 16-18 16-31z m137 47c-23 13-49 19-74 17 7-11 13-23 16-36 25 5 52 1 76-13 17-10 30-23 40-38-10 28-30 54-58 70z m-93 41c10-9 18-20 24-31 14 20 22 45 22 72 0 33-13 63-33 85 9-16 14-34 14-53 0-28-10-54-27-73z m-171 0c-17 20-27 45-27 73 0 19 5 37 14 53-20-22-32-52-32-85 0-26 8-51 21-71 6 11 15 21 24 30z m88-46c-22 0-40-16-43-37 1-1 2-1 3-1 2 20 19 36 39 36 21 0 37-16 40-35 1 0 2 0 3 1-3 20-21 36-42 36z"/>
<glyph unicode="&#85;" d="M420 320c-4 5-9 10-16 14-15 8-29 8-40 2l0 0c-32-15-63-22-93-28-8 3-11 9-6 20 19 18 41 32 64 40 18 2 32 17 38 34 23 5 51 3 69-15-12 67-51 75-86 66-1 1-2 2-4 3-30 17-59-4-67-31-5-15-13-30-21-43-35-31-68-19-93 15-20 29-37 66-47 100l-101 0 0-69c57-26 139-125 122-153-20-10-42-18-67-26-2-1-5-2-7-3-1 0-1 0-1 0l0 0c-21-10-35-37-28-59-19-38-17-88 59-101-22 20-27 48-19 70 23-3 42 14 48 35 9 21 22 40 42 47 22 7 89-20 123-76 3-10 10-19 21-25 12-6 23-7 32-5 19-20 35-51 27-80 54 48 37 92 9 122 3 17-4 34-22 45-10 5-19 7-27 6-16-1-34 2-50 8-22 16-21 31-3 41 28 3 55-6 76-17 2-2 4-3 7-4 26-15 49-3 61 17 21-5 41-25 54-49 22 69-14 95-54 99z"/>
<glyph unicode="&#86;" d="M236 265c3-14 2-84 2-84 0 0-26 60-29 74-2 13 2 26 9 29 7 3 16-6 18-19z m36-2c-2-13-1-83-1-83 0 0 26 60 28 73 3 14-1 27-9 29-7 3-15-5-18-19z m-2 60c-5 1-10 2-15 2-7 0-13-1-19-3-8-19-24-33-43-41-3-9-5-18-5-28 0-40 67-234 67-234 0 0 66 194 66 234l0 0c0 10-1 19-4 27-21 7-38 23-47 43z m-18 166c-99 0-179-59-179-131 0-73 80-132 179-132 100 0 180 59 180 132 0 72-80 131-180 131z m-88-214c-44 0-80 36-80 80 0 44 36 80 80 80 44 0 79-36 79-80 0-44-35-80-79-80z m179 0c-44 0-80 36-80 80 0 44 36 80 80 80 44 0 80-36 80-80 0-44-36-80-80-80z m-175 139c-32 0-57-26-57-57 0-31 25-57 57-57 31 0 56 26 56 57 0 31-25 57-56 57z m8-69c-10 0-18 9-18 19 0 10 8 19 18 19 11 0 19-9 19-19 0-10-8-19-19-19z m171 69c-31 0-57-26-57-57 0-31 26-57 57-57 32 0 57 26 57 57 0 31-25 57-57 57z m8-69c-10 0-19 9-19 19 0 10 9 19 19 19 11 0 19-9 19-19 0-10-8-19-19-19z"/>
<glyph unicode="&#87;" d="M314 64l-23 52-21-60-21 59-25-51-15 55c-19-24-18-46-19-72 56-21 108-20 161 0 2 29-3 51-20 71z m-105 145l19 53 21-57 21 53 21-54 21 58 19-53c18 32 21 75 11 107l68 0-38 157c-68 26-137 23-205 0l-38-157 70 0c-15-37-5-78 10-107z m153 193l12-55-80 7c15 26 40 39 68 48z m-92-80l25-33-50 0z m-104 25l12 55c30-7 54-20 68-48z m253-149c-86-17-185-17-280-8 4 0 7 0 11-1l3 27c3-1 5-2 8-2 9 1 17 9 16 18 0 10-9 17-18 17-10-1-17-9-16-18 0-4 1-7 3-10-6-14-10-28-13-43-22 19-50 24-80 18 0 0 0 0 0 0-2 7-9 12-16 12-10 0-18-8-18-17 0-10 8-18 18-18 4 0 8 2 11 5 0 0 0 0 0 0 26-18 53-23 83-17-3-20-2-39 3-56-4-4-6-8-5-13 0-10 8-17 18-17 9 1 17 9 16 19 0 9-8 16-18 16-2 0-3 0-4-1l4 35c104-16 280-29 352 46z m-371-3c0 0 0 0 0 0 0 0 0 0 0 0z m-5-1c0 0 0 0 0 0 0 0 0 0 0 0z m-6-1c0 0 0 0 0 0 0 0 0 0 0 0z m-2-5c1-1 2-2 3-2-1 0-2 1-3 2z m-3 3c1-1 2-1 3-2-1 1-2 1-3 2z m13-11c1-1 2-1 3-2-1 1-2 1-3 2z m-6 5c1 0 1-1 2-2-1 1-1 2-2 2z m3-2c1-1 2-2 3-2-1 0-2 1-3 2z m111 52c0 0 1 1 1 1 0 0-1-1-1-1z m-2-4c0 0 0 0 0 0 0 0 0 0 0 0z m-12-41l0-18z m-4-29c0 0 0 0 0 0 0 0 0 0 0 0z m3-71c0 1-1 2-1 4 0-2 1-3 1-4l1 5z m1 55l0 17 0-17c1-1 2-1 4-1-2 0-3 0-4 1z m3 18c1 1 3 1 4 1-1 0-3 0-4-1z m-1 7c0 0 0 0 0 0 0 0 0 0 0 0z m1-2c0 0 0 0 1 0-1 0-1 0-1 0z m2-1c0-1 0-1 0-1 0 0 0 0 0 1z"/>
<glyph unicode="&#88;" d="M256 496c-72 0-120-48-120-96 0-48 24-67 52-113-4-47-4-111-4-199 15 52 28 92 38 122 15-45 27-106 34-194 7 88 19 149 34 194 10-30 23-70 38-122 0 88 0 153-4 200 28 46 52 64 52 112 0 48-48 96-120 96z m0-48c40 0 72-27 72-60 0-13-5-25-14-35-10 34-27 47-58 47-31 0-48-13-58-47-9 10-14 22-14 35 0 33 32 60 72 60z"/>
<glyph unicode="&#89;" d="M256 376c60-75-45-45-165-45 51-17 90-30 118-41-45-15-105-27-193-34 88-7 148-19 193-34-28-11-67-24-118-41 120 0 225 30 165-45 20 10 42 20 64 30 26-17 45-30 80-30 48 0 96 48 96 120 0 72-48 120-96 120-35 0-55-13-80-30-22 10-44 20-64 30z m132-48c33 0 60-32 60-72 0-40-27-72-60-72-9 0-17 3-25 7 25 17 43 38 43 65 0 27-18 48-43 65 8 4 16 7 25 7z"/>
<glyph unicode="&#90;" d="M24 350c27-49 59-76 59-132 0-22-16-29-16-46 0-9 11-18 21-18 9 0 21 10 21 19 0 17-15 23-15 42 0 65 113 25 118-65 3-47-23-50-23-72 0-18 12-25 24-25 12 0 22 6 22 25 0 15-20 25-20 71 1 96 81 64 86-37 1-30-19-40-19-63 0-13 10-23 21-23 10 0 22 10 22 24 0 24-21 33-20 63 2 111 69 187 82 78 3-26-16-36-16-59 0-14 9-24 18-24 10 0 19 10 19 23 0 22-19 33-16 60 12 102 70 119 97 159-122 177-369 178-465 0z m27 0c83 149 314 149 412-5-150-108-280-108-412 5z m282 14c0-45-36-81-81-81-45 0-81 36-81 81 0 45 36 81 81 81 45 0 81-36 81-81z m-52 3c0-16-14-29-30-29-16 0-29 13-29 29 0 16 13 29 29 29 16 0 30-13 30-29z"/>
<glyph unicode="&#48;" d="M395 161c4 24 7 46 20 67 36 54 87 108 68 178-12 44-48 66-84 64-30-1-56-23-71-55-30 20-64 25-91 12-28-14-47-45-44-82-4-2-9-5-14-8-15 33-41 55-71 56-36 1-72-21-84-64-19-71 32-124 68-179 13-21 16-43 20-66 13 20 32 39 50 48 49 29 115 47 141 99 0 0 0 0 0 0 15-7 29-14 42-21 18-10 37-28 50-49z m-93 113c-6 2-12 5-17 7 5-2 11-5 17-7z m-74 54c11 1 21-1 29-6 16-8 27-21 27-41-25 11-46 24-56 47z m22 72c20 10 49 9 72-14l19-19 6 25c9 33 31 48 53 49l0 0c23 1 46-12 55-44 13-46-29-82-58-123l-83 0c1 34-17 62-44 75-14 7-31 9-47 6 0-2 0-4 0-6-3 25 9 42 27 51z m-22-70c-1 0-1 0-1 0 0 0 0 0 1 0z m-2 3c0 0 0 0 0 1 0-1 0-1 0-1z m-1 3c0 0 0 0 0 0 0 0 0 0 0 0 0 0 0 0 0 0 0 0 0 0 0 0z m0 3c0 1 0 1-1 1 1 0 1 0 1-1z m-1 3c0 0 0 1 0 1 0 0 0-1 0-1z m0 2c0 1-1 1-1 2 0-1 1-1 1-2z m-1 3c0 0 0 1 0 2 0-1 0-2 0-2z m-26-19c0 0 0 0 0 0-1 1-1 3-1 4 0-1 0-3 1-4 0 0 0 0 0 0z m1-5c0 1 0 1 0 1 0 0 0 0 0-1z m-3 14c-1 1-1 2-1 2 0 0 0-1 1-2z m1-5c-1 1-1 3-1 4 0-1 0-3 1-4z m-144-13c9 32 32 45 55 44l0 0c22-1 44-16 53-48l6-25 19 18c4 5 9 9 14 11 13-35 43-56 76-74l-203 0c-16 24-28 47-20 74z m59-191l182 108c0 0 0 0 0 0z m255-80c0-15 14-28 32-28 18 0 32 13 32 28 0 34-26 27-33 81-7-54-31-47-31-81z"/>
<glyph unicode="&#49;" d="M375 209l19-55-122-112z m11-130l-19 54 122 112z m-253 130l-18-55 122-112z m-10-130l19 54-122 112z m-9 346c1-107 48-214 144-307 95 93 144 200 145 307-82-18-207-18-289 0z m144-267c-73 71-110 153-110 235 62-14 158-14 221 0-1-82-38-164-111-235z"/>
<glyph unicode="&#50;" d="M493 188l0 29c-54 21-85 41-95 73-8 26 16 61 61 103-47-26-82-44-96-19-12 22 2 63 24 118l-16 0c-17-28-32-49-38-44-5 5-5 21-3 44l-32 0 0 0c-21-48-44-76-77-80-28-4-65 29-105 76 23-47 31-84 16-93-19-11-56 2-111 25l0-10c38-25 73-48 66-57-6-7-32-6-66-1l0-28c50-25 77-51 77-75 0-21-42-64-77-97l0-16c32 10 71 14 84-9 13-24 4-58-13-107l30 0c31 42 61 76 77 74 11-1 6-35-2-74l9 0c28 77 62 125 113 123 45-2 87-47 134-79-24 30-69 73-60 81 11 8 54-7 100-24l0 15c-30 20-58 39-51 46 7 7 26 8 51 6z m-142 35c-5-6 28-26 47-39-28 10-65 25-72 19-5-4 18-25 31-40-24 16-46 39-69 40-33 1-52-40-69-101 4 29 18 75 8 76-13 1-45-47-70-82 17 51 33 80 22 98-9 17-44 7-59-2 18 17 56 50 56 64 0 21-38 44-106 64 41-7 94-19 100-11 5 7-35 29-59 45 43-18 70-30 82-23 8 4 4 23-8 47 21-24 39-41 54-39 30 5 43 44 66 121l0 0c-5-43-17-96-10-102 6-5 27 34 43 59-19-46-36-81-27-97 7-12 25-4 49 10-23-22-36-39-32-53 8-26 46-36 113-60-34 5-82 14-90 6z"/>
<glyph unicode="&#51;" d="M469 149l-65 65c-19 19-52 31-81 28 0 0 0 0 0 0 7 11 13 23 18 35l-41 41c-49-19-84-56-106-106l41-41c13 4 24 9 34 15-2-28 10-59 29-78l65-65c24-24 61-29 89-13l-8 9 29 29-29-29 16-17 30 30-8 8c16 28 11 65-13 89z m-293 45c-6 23-25 45-48 56 10 5 19 11 28 18l-12 47c-46 7-87-5-124-33l12-47c12-3 22-4 33-4-14-20-19-48-13-70l21-76c7-28 32-47 60-47l-3 10 5-20 35 10-2 9c23 14 36 43 28 71z m116 187c0 0-1 0-1 0 5-22 21-45 40-56l66-38c24-14 54-10 73 9l8-5 18 30-17 10-17-30 17 30 9-5c6 26-5 54-29 68l-66 38c-20 11-48 14-71 5 0 0 0 0 0 0 3 10 6 21 7 32l-41 23c-35-25-55-62-62-107l41-23c10 5 18 12 25 19z m5 6c0 0 0 0 0 0 0 0 0 0 0 0z m-3-3c0 0 0 0 0 0 0 0 0 0 0 0z"/>
<glyph unicode="&#52;" d="M168 166l0 0c0 0 0 0 0 0z m282-62c60 7 43 88 0 71-49-19-91-34-131-43l13 29c1 0 1 0 2 0 0 1 0 2 0 3 0 0 0 0 0-1l0 1 0 0c-2 39 22 82 77 82 2 108-40 253-156 253l0 0c-117 0-163-151-165-253 60 0 79-42 77-81 1 0 1-1 2-1 0 0 0 0 0 0l15-34c-36 8-74 22-117 45-54 29-73-56 0-69-73-1-53-85 0-61 47 21 91 35 132 41l-7-17c13-3 27-6 41-7l0 0-12 26c9 1 18 2 27 2l-13-28c2 0 3 0 4 0-22 1-44 5-66 14l0-53c52-17 104-17 156 0l0 53c-5-2-11-4-16-5l-7 15c-2 1-4 1-6 1 47-6 96-20 150-42 50-20 63 57 0 59z m-166-15l-12-26c-5-1-10-1-15-1 5 0 9 0 13 1l-13 27c9 0 18-1 27-1z m-19 36c1 0 1 0 2 0-1 0-1 0-2 0z m5 0c1 0 2 0 3 0-1 0-2 0-3 0z m5 0c1 0 2 1 3 1-1 0-2-1-3-1z m5 1c1 0 2 0 3 0-1 0-2 0-3 0z m3 0l8 17c0 0 0 0 0 0 2 1 5 1 8 2l7-15c-8-2-16-3-23-4z m46 32c1 1 2 2 3 2-1 0-2-1-3-2z m-10-26c-2 0-4 0-6-1 2 1 4 1 6 1z m-7-1c-2 0-4-1-6-1 2 0 4 1 6 1z m-8 16c1 0 2 0 2 0 0 0-1 0-2 0z m3 0c0 1 1 1 1 1 0 0-1 0-1-1z m2 1c0 0 1 0 1 1 0-1-1-1-1-1z m2 1c0 0 1 0 1 0 0 0-1 0-1 0z m2 1c0 0 1 0 1 0 0 0-1 0-1 0z m2 1c0 0 0 0 1 0-1 0-1 0-1 0z m2 0c0 1 0 1 1 1-1 0-1 0-1-1z m1 1c1 1 1 1 1 1 0 0 0 0-1-1z m2 1c0 0 1 1 1 1 0 0-1-1-1-1z m2 1c0 0 1 1 1 1 0 0-1-1-1-1z m2 1c0 0 0 1 1 1-1 0-1-1-1-1z m1 1c1 0 1 1 1 1 0 0 0-1-1-1z m2 1c0 1 1 1 1 1 0 0-1 0-1-1z m-1 211c21-6 34-28 28-49-3-13-11-22-22-26l0 0c-7 18-27 36-55 48 6 20 28 32 49 27z m-73-64c15 0 25-79 32-118-13 4-27 12-31 34-5-22-16-29-32-34 5 39 17 118 31 118z m29-162c0 0 0 0 0 0 0 0 0 0 0 0z m-12-1c0 0 0 0 0 0 0 0 0 0 0 0z m-63 6c3-1 5-1 8-2l10-20c-10 0-20 1-31 3l10 20c1 0 2-1 3-1z m38-6c0 0 0 0-1 0 1 0 1 0 1 0z m-9 0c0 0 0 0 0 0 0 0 0 0 0 0z m-4 1c0 0 0 0 0 0 0 0 0 0 0 0z m-8 1c-1 0-1 0-1 0 0 0 0 0 1 0z m-69 176c-6 21 7 43 28 49 21 5 43-7 49-27-28-12-48-30-55-48-11 4-19 13-22 26z m39-168c0 0 0 0 0 0 0 0 0 0 0 0z m-9 4c0 0 0 0 0 0 0 0 0 0 0 0z m5-2c0 0 0 0 0 0 0 0 0 0 0 0z m-1-24c-1 0-3 1-5 1 2 0 4-1 5-1z m5-1c-1 0-3 1-4 1 1 0 3-1 4-1z m35-4c4 0 8 0 12 0l8 16c2 0 4 0 7 0 0 0 1 0 2 0 0 0 0 0 0 0l7-15c-12-1-24-1-36-1z m-4 1c1-1 2-1 4-1-2 0-3 0-4 1z m32-35c-1 0-2 0-3 0 1 0 2 0 3 0z m-4 0c-2 0-3 0-5 0 2 0 3 0 5 0z m-9-28c2 0 3 0 4 0-1 0-2 0-4 0z m-4 0c1 0 2 0 4 0-2 0-3 0-4 0z m9 0c1 0 2 0 3 0-1 0-2 0-3 0z m8 0c-1 0-3 0-4 0 1 0 3 0 4 0z m51 7c-2 0-4 0-5-1 1 1 3 1 5 1z m5 2c-2-1-4-1-5-2 1 1 3 1 5 2z m-41-8c2 0 4 0 5 1-1-1-3-1-5-1z m5 1c2 0 4 0 5 0-1 0-3 0-5 0z m6 0c1 0 3 1 4 1-1 0-3-1-4-1z m5 1c1 0 3 1 4 1-1 0-3-1-4-1z m5 1c1 0 3 1 4 1-1 0-3-1-4-1z m5 1c1 0 3 1 5 1-2 0-4-1-5-1z m-3 21c2-1 3-1 5-1-2 0-3 0-5 1z m-11 1c2 0 4-1 5-1-1 0-3 1-5 1z m6-1c1 0 3 0 5 0-2 0-4 0-5 0z"/>
<glyph unicode="&#53;" d="M247 290c34 7 38 50-14 62-39 9-77 28-106 52 1-2 2-3 3-5-12 18-22 39-29 64 1-4 2-7 4-11 7 10 6 24-2 33-10 12-27 13-38 3-10-9-12-23-6-33-10 7-24 7-34-2-11-10-13-27-3-38 10-11 26-12 37-4-1 0-1 1-2 1 15-7 32-20 50-36-2 2-4 3-5 4 18-27 38-69 37-94-1-56 58-75 70-36 32-31 45-77 24-120 38-70 145-127 256-96-181 73-115 160-242 256z m-191 123c0 0 1-1 1-1 0 0-1 1-1 1z m-8 3c0 0 1 0 1 0 0 0-1 0-1 0z m2-1c0 0 0 0 1 0-1 0-1 0-1 0z m1 0c0 0 1 0 1-1 0 1-1 1-1 1z m2-1c0 0 0 0 1 0-1 0-1 0-1 0z m1 0c1-1 1-1 2-1-1 0-1 0-2 1z m189-121c0 0 0 0 0 0 0 0 0 0 0 0z m-9 6c0 1 0 1-1 1 1 0 1 0 1-1z m-65 54c-3 3-6 6-9 9 3-3 6-6 9-9z m31-27c-2 2-3 3-5 4 2-1 3-2 5-4z m-6 5c-2 1-3 2-4 3 1-1 2-2 4-3z m-5 5c-2 1-3 2-5 3 2-1 3-2 5-3z m-5 4c-2 1-3 2-5 4 2-2 3-3 5-4z m-5 4c-2 2-3 3-4 4 1-1 2-2 4-4z m-5 5c-2 1-3 3-5 4 2-1 3-3 5-4z m-32 33c-4 6-8 11-12 17 4-6 8-11 12-17z m18-19c-2 1-3 3-5 4 2-1 3-3 5-4z m-5 4c-4 5-9 10-13 15 4-5 9-10 13-15z m-30-9c-1 2-3 3-4 5 1-2 3-3 4-5z m-14 14c-1 1-3 3-4 4 1-1 3-3 4-4z m9-9c-1 1-2 3-4 4 2-1 3-3 4-4z m-4 5c-2 1-3 2-4 4 1-2 2-3 4-4z m23-25c1-1 3-3 4-4-1 1-3 3-4 4z m-14 15c2-1 3-3 5-5-2 2-3 4-5 5z m5-5c1-1 3-3 4-4-1 1-3 3-4 4z m5-5c1-1 2-3 4-4-2 1-3 3-4 4z m17-20c1-2 3-3 4-5-1 2-3 3-4 5z m-9 10c2-1 3-3 5-5-2 2-3 4-5 5z m5-5c1-1 3-3 4-5-1 2-3 4-4 5z m20-26c-1 2-3 4-4 5 1-1 3-3 4-5z m-4 6c-1 1-2 3-4 4 2-1 3-3 4-4z m-4 5c-1 2-2 3-4 5 2-2 3-3 4-5z m8-11c1-2 2-4 4-5-2 1-3 3-4 5z m40 9l-15-54c1-1 3-2 4-3-1 1-3 2-4 3z m21-13c0 0 0 0 0 0 0 0 0 0 0 0z m-10 6c0 0-1 1-1 1 0 0 1-1 1-1z m-5 3c0 1-1 1-1 1 0 0 1 0 1-1z m-13-56c3-2 5-4 8-6-3 2-5 4-8 6z m-4 3c1-1 3-2 4-3-1 1-3 2-4 3z"/>
<glyph unicode="&#54;" d="M492 214l-34 11 1 0-187-68-179 189-44 14c-22-15-25-60-10-76l221-227 234 84c-22 12-39 45-2 73z m-244-61l-184 191 5 0 183-187z m14-89c0 0-26 30 7 70l200 72c0 0-23-40 4-63z m-169 282l-6 6 186 67 185-194 34-11c-1 0-1 0-1 0l4 1-218 226-227-81z"/>
<glyph unicode="&#55;" d="M444 437c-32 33-158 32-260 15l6-71c60 5 124 4 160-33 35-38 33-102 26-161l70-10c22 101 29 227-2 260z m-280 11c-6-1-11-2-16-3l6-67c5 1 11 1 16 2z m278-291l-69 9c0-5-1-10-2-16l66-9c2 5 3 10 5 16z m-314 283c-49-13-82-29-80-47 2-22 38-21 85-17 0 0-5 64-5 64z m303-319l-63 9c-7-47-10-83 13-86 17-3 35 30 50 77z"/>
<glyph unicode="&#56;" d="M254 287c-12-6-24-13-36-22 12 17 24 29 37 39l14 136c6 27-29 40-73 34-35-4-75-19-108-47l34-190 2-61 58-8 17 39 23-41c80-10 142 1 172 21 6 63-43 142-140 100z m166-102c5-3 8-7 8-10 0-19-78-34-173-34-96 0-174 15-174 34 0 4 3 7 9 10-22-6-35-14-35-23 0-23 89-41 200-41 110 0 200 18 200 41 0 9-13 17-35 23z m-337-2l-48 0 25-11c5 4 13 8 23 11z m-28-21c0 4 2 7 6 11l-45-27 45 5c-4 4-6 7-6 11z m15-16l-29-45 65 33c-15 4-27 8-36 12z m49-14l-11-67 61 60c-18 1-35 4-50 7z m67-9l12-77 51 75c-22 0-43 1-63 2z m76-2l56-77 7 79c-20-1-41-2-63-2z m80 4l60-60-11 67c-14-3-31-5-49-7z m98 21c-9-4-21-8-36-11l65-34z m15 16c0-4-3-7-7-11l47-5-55 32 0-1c10-4 15-10 15-15z m-28 21c10-4 18-7 22-12l26 12z"/>
<glyph unicode="&#57;" d="M22 340c-24-69 37-92 82-43-42-8-72 2-82 43z m345-18c160 36 159 214 37 164l0 0c81 14 54-109-10-124 39 30 31 58 16 83-7-92-123-107-157-167 0 0 1 0 1 1 0 0-1 0-1 0 0-1 0-1 0-2 1 110 37 171 87 144 23-13 19-45-8-54 56 11 65 62 12 93-44 26-111-7-119-89-32 134-144 164-154 43 0 0 1 1 1 2 0 0 0 0 0 0 0 1 1 1 1 1 0 1 0 1 0 1 0 0 0 1 1 1 0 0 0 1 0 1 0 0 0 0 1 1 0 0 0 0 0 0 0 1 0 1 1 1 0 1 0 1 0 1 0 0 0 1 1 1 0 0 0 0 0 1 0 0 1 0 1 0 0 1 0 1 0 1 0 0 1 0 1 1 0 0 0 0 0 0 0 1 1 1 1 1 0 0 0 0 0 1 1 0 1 0 1 0 0 1 0 1 0 1 1 0 1 0 1 1 0 0 0 0 1 0 0 0 0 1 0 1 0 0 1 0 1 0 0 1 0 1 0 1 1 0 1 0 1 0 0 1 0 1 1 1 0 0 0 0 0 0 0 1 1 1 1 1 0 0 0 0 0 0 1 1 1 1 1 1 0 0 0 0 1 0 0 1 0 1 0 1 0 0 1 0 1 0 0 0 0 1 1 1 0 0 0 0 0 0 0 0 1 0 1 0 0 1 0 1 0 1 1 0 1 0 1 0 0 0 1 0 1 1 0 0 0 0 0 0 1 0 1 0 1 0 0 0 1 0 1 1 0 0 0 0 0 0 1 0 1 0 1 0 0 0 1 0 1 0 0 0 0 1 1 1 0 0 0 0 0 0 0 0 1 0 1 0 0 0 0 0 1 0 0 0 0 1 0 1 1 0 1 0 1 0 0 0 0 0 1 0 0 0 0 0 0 0 1 0 1 0 1 0 0 0 1 0 1 0 0 0 0 1 1 1 0 0 0 0 0 0 0 0 1 0 1 0 0 0 0 0 1 0 0 0 0 0 1 0 0 0 0 0 0 0 0 0 1 0 1 0 0 0 0 0 1 0 0 0 0 0 1 0 0 0 0 0 0 0 0 0 1 0 1 0 0 0 0 0 1 0 0 0 0 0 1 0 0 0 0 0 0 0 0 0 1 0 1 0 0 0 0 0 1 0 0 0 0 0 1 0 0 0 0 0 0 0 0 0 1 0 1 0 0 0 0 0 1 0 0 0 0 0 1 0 0 0 0 0 0 0 1 0 1 0 1-1 0 0 1 0 1 0 0 0 0 0 1 0 0 0 0 0 0 0 1 0 1 0 1 0 1 0 1 0 1 0 0 0 1 0 1-1 0 0 0 0 0 0 1 0 1 0 2 0 0 0 0 0 0 0 0 0 1 0 1 0 0 0 0-1 1-1 0 0 0 0 1 0 0 0 0 0 0 0 1 0 1 0 1-1 0 0 1 0 1 0 0 0 1 0 1 0 0 0 0 0 0 0 1 0 1-1 2-1 0 0 0 0 0 0 0 0 1 0 1 0 0-1 0-1 1-1 0 0 0 0 1 0 0 0 0 0 0 0 1-1 1-1 1-1 1 0 1 0 1 0 0 0 1-1 1-1 0 0 0 0 0 0 1 0 1 0 2-1 0 0 0 0 0 0 0 0 1 0 1-1 0 0 0 0 1 0 0 0 0 0 1-1 0 0 0 0 0 0 1 0 1 0 2 0 0-1 0-1 0-1 0 0 1 0 1-1 0 0 0 0 0 0 1 0 1 0 2-1 0 0 0 0 0 0 0 0 1 0 1-1 1 0 1 0 1 0 0 0 1 0 1-1 0 0 0 0 0 0 1 0 1-1 2-1 0 0 0 0 0 0 0 0 1-1 1-1 0 0 0 0 0 0 1-1 1-1 2-1-21-4-45-21-65-55 55 33 95 14 126-35 1-3 2-7 4-10 0-1 0-1 0-1 0 0 0-1 0-1 1-7 2-13 4-20 0 0 0 0 0-1-26 30-74 38-110 6 37 2 67-11 92-34-17-3-34-9-48-17 23-34 40-80 40-133-50-10-78-56-84-113l204 0c-2 35-13 61-44 82 43-3 69-50 73-82l28 0c-7 57-36 103-86 113 0 56 19 99 41 133-10 6-20 11-32 14-17-38-32-85-35-147-3 61 1 113 9 152 21 22 51 37 89 46z m-136-20c0 0 0 0 0-1 0 2 0 4-1 5 1-1 1-2 1-4 0 0 0 0 0 0z m19-54c0 0 0 1 0 2 0 0 0 0 0 0 0 0 0 0 0 0 0 0 0 0 0 0 0-1 0-1 0-2z m0-1c0-1 0-2 0-3 0 0 0 0 0 0 0 1 0 2 0 3 0 0 0 0 0 0z m0 0c0-1 0-2 0-3 0 1 0 2 0 3z m0-3c0-1 1-2 1-3 0 1-1 2-1 3z m0 15c0-1 0-2 0-3 0 1 0 2 0 3z m0-3c0-1 0-2 0-2 0 0 0 1 0 2z m0-3c0-1 0-2 0-3 0 1 0 2 0 3z m-1 9c1-1 1-2 1-3 0 1 0 2-1 3z m0 4c0 0 0 1-1 1 1 0 1-1 1-2 0 0 0 0 0 1z m0-2c0 0 0-1 0-2 0 1 0 2 0 2z m-1 3c0 0 0-1 0-2 0 1 0 2 0 2 0 3-1 6-2 8 1-2 2-5 2-8 0 0 0 0 0 0z m-5 15c1 0 1-1 1-2 0 1 0 2-1 2z m2-2c0-1 1-3 1-5 0 2-1 4-1 5z m2-16c0 0 0-1 0-1 0 0 0 1 0 1z m0-2c-1-1-1-1-1-2 0 1 0 1 1 2z m-1-3c0 0 0-1 0-1 0 0 0 0 0 1z m-1-3c0 0 0 0 0-1 0 1 0 1 0 1z m0-3c0-1 0-1 0-1 0 0 0 0 0 1z m-1-3c0 0 0 0 0 0 0 0 0 0 0 0z m0-6c0 0 0 0 0 0 0 0 0 0 0 0z m0-9c0 0 0 0 0 0 0 0 0 0 0 0 0 0 0 0 0 0 0 0 0 0 0 0z m2-11c0 0 0 0 0 1 0-1 0-1 0-1z m-1 3c0 1 0 1 0 1 0 0 0 0 0-1z m0 4c0 0 0 1 0 1 0 0 0-1 0-1z m8 7c0-1 1-2 1-3 0 1-1 2-1 3 0 0 0 0 0 0z m17 28c-1 0-1 0-1-1 0 1 0 1 1 1z m-3-3c-1-1-1-1-1-2 0 1 0 1 1 2z m-4-6c0 0-1-1-1-2 0 1 1 2 1 2z m-2-4c-1 0-1-1-2-2 1 1 1 2 2 2z m-3-4c0-1-1-1-1-2 0 1 1 1 1 2z m-2-4c-1-1-1-2-1-3 0 1 0 2 1 3z m-2-4c0 0 0 1 0 2 0-1 0-2 0-2z m0 5c0 1 0 2 0 3 0-1 0-2 0-3z m-1 6c0 1 0 1 0 2 0-1 0-1 0-2z m0 7c0 1 0 1 0 2 0-1 0-1 0-2z m0 6c0 0 0 1 0 2 0-1 0-2 0-2z m0 5c0 1 0 2 0 2 0 0 0-1 0-2z m-19 29c0 0-1 0-1 0 0 0 0 0 0 0 0 0 1 0 1 0z m9-16c0 0 0 1-1 2 1-1 1-2 1-2z m-1 2c0 1 0 1-1 2 1-1 1-1 1-2z m-1 2c0 1-1 2-1 2 0 0 1-1 1-2z m-1 3c-1 0-1 1-1 1 0 0 0-1 1-1z m-2 2c0 0 0 1 0 1 0 0 0-1 0-1z m-1 2c0 1-1 1-1 1 0 0 1 0 1-1z m-1 2c-1 0-1 1-1 1 0 0 0-1 1-1z m6-57c-1 0-1 0-1 1 0-1 0-1 1-1z m-4 4c0 0 0 1 0 1 0 0 0-1 0-1z m-2 4c0 0-1 1-1 1 0 0 1-1 1-1z m-6 99c0 0 0 0 0 0 0 0 0 0 0 0z m3-32c0 0 0 0 0 0 0 0 0 0 0 0z m-1 4c0 1 0 1 0 1 0 0 0 0 0-1z m0 5c0 0 0 1 0 1 0 0 0-1 0-1z m0 5c0 0 0 0 0 1 0-1 0-1 0-1z m-1 4c0 1 0 1 0 1 0 0 0 0 0-1z m0 5c0 0 0 0 0 1 0-1 0-1 0-1z m-1 4c0 0 0 1 0 1 0 0 0-1 0-1z m-3-22c0 0 0 0 0 0 0-1 0-1 1-1-1 1-1 3-2 5 0-2 1-3 1-4z m2-6c0 0 0 0 0-1 0 2-1 4-1 5 0-1 0-2 1-3 0-1 0-1 0-1z m0-1c0-1 1-3 1-4 0 0 0 0 0 0 0-1 0-1 0-1 0 2-1 3-1 5z m2-11c0 0 0 0 0 0 0 0 0 0 0 0 0 0 0 0 0 0z m2-50c-1 1-1 1-1 1 0 0 0 0 1-1z m-3 4c0 0-1 1-1 1 0 0 1-1 1-1z m-13 15c0 0-1 0-1 0 0 0 1 0 1 0z m9-11c0 0 0 0 0 1 0-1 0-1 0-1z m-3 4c0 0 0 0 0 0 0 0 0 0 0 0z m-3 3c0 0 0 1-1 1 1 0 1-1 1-1z m-7 7c0 0 0 0 0 1 0-1 0-1 0-1z m41-38c0 1 0 2 0 3 0-1 0-2 0-3z m21 37c0 0 0 0 0 0 0 0 0 0 0 0z m-3-3c0 0 0 1 1 1-1 0-1-1-1-1z m52 140c-32 6-43-49 0-42-15 6-16 28 0 42z"/>
<glyph unicode="&#33;" d="M384 418l-245 0c0-58-34-22-34-86l0-251c0-27 21-49 49-49l213 0c27 0 49 22 49 49l0 251c0 68-32 30-32 86z m-196-359l0 0 0 0 0 0 59 159-107 0 173 184-47-134 117 0z m-89 430l0-75 39 0c1 1 1 2 1 4l245 0c0-2 0-3 0-4l40 0 0 75z"/>
<glyph unicode="&#34;" d="M502 12l-42 354-62-62-240 199-147 0 0-152 197-237-59-60z m-484 444l1 38 107 0 266-223 54 53 27-235-236 27 52 51z"/>
<glyph unicode="&#35;" d="M62 450c48-10 123-83 129-130-43 5-119 78-129 130z m178-44l-59-58c6-10 9-19 10-28-8 1-18 5-28 10l-64-64 27-26 140 140z m-178 44c5-1 11-3 16-5l16 15-34 34-44-44 34-34 17 17c-2 6-4 11-5 17z m360-284l-40-7 7 40-40-7 8 39-40-7 7 40-40-7 8 40-47 47-75-75 0 0 182-182c35-35 93-78 142-67-24 21-82 107-72 146z"/>
<glyph unicode="&#36;" d="M293 344c1 47 47 159-37 158-1 0-2 0-3 0-81-1-36-111-35-158z m4-26l-83 0c-21-71-91-112 7-306 35-2 21-2 35-2 13 0 0 0 34 2 99 194 29 235 7 306z"/>
<glyph unicode="&#37;" d="M254 503c-109 0-197-110-197-247 0-136 88-247 197-247 108 0 196 111 196 247 0 137-88 247-196 247z m-85-401c-24 0-43 19-43 43 0 23 19 42 43 42 23 0 42-19 42-42 0-24-19-43-42-43z m-69 228c0 86 70 155 155 155 86 0 155-69 155-155 0-85-69-155-155-155-85 0-155 70-155 155z m234-228c-23 0-42 19-42 43 0 23 19 42 42 42 24 0 43-19 43-42 0-24-19-43-43-43z m91 34c-5-14-12-26-20-37 24 9 44 22 60 37z m-343 0l-36 0c15-14 33-26 55-35-7 11-14 22-19 35z m174 79l-100 58 0 115 99 58 99-58 1-116z"/>
<glyph unicode="&#38;" d="M259 488c40 1 80-10 118-32l-9-32c-44-6-82 3-118 31z m72-203c9 6 16 14 18 24 5 18-5 37-23 52l17 61c-27 0-51 7-74 20l-16-61c-23-3-42-15-47-34-2-10-1-20 4-30-55-13-103-60-120-124-9-34-8-68 0-99 70-51 146-78 234-62 22 22 40 51 50 85 17 65-2 129-43 168z m-10-136c-17 3-31-4-38-21l-101 27c3 16-7 32-23 38l13 46c16-3 33 7 39 23l100-27c-3-17 7-33 23-39z"/>
<glyph unicode="&#39;" d="M255 378c-69 0-128-40-160-100l-56 0 0-93 112 0c3 59 48 106 104 106 55 0 100-47 103-106l113 0 0 93-57 0c-31 60-91 100-159 100z m-216-210l0-150 112 0 0 150z m319 0l0-150 113 0 0 150z"/>
<glyph unicode="&#40;" d="M78 384c4 23 21 42 44 49l-68 68-44 0 0-50z m49-63c0 34 28 62 62 62 4 0 8 0 11-1-4 30-30 53-61 53-34 0-62-28-62-62 0-31 22-56 50-61 0 3 0 6 0 9z m361-298l-362 139 16 47 132 28 27 131 48 18z m-214 214l27 131-6 17-170-169 17-7z m-103 24l77 78c-7 25-31 44-59 44-34 0-62-28-62-62 0-28 18-52 44-60z"/>
<glyph unicode="&#41;" d="M14 53l15 15 40-41-15-15z m211 127c0 24-20 43-44 43-24 0-44-19-44-43 0-25 20-44 44-44 24 0 44 19 44 44z m-88-5l0 1-83-83 40-41 83 83 0 1c-21 2-38 18-40 39z m0 5c0 22 17 41 40 43-24 27-45 56-62 87l-56-56 78-79c0 2 0 3 0 5z m88-5c-3-22-21-39-44-39-1 0-3 0-4 0l78-79 56 56c-31 18-60 39-86 62z m183 300l-212-212c4-5 6-11 6-17 0-9-5-18-12-23 17-4 31-18 34-35 6 7 14 12 24 12 6 0 12-2 17-5l211 211 15 84z m-387-399l56-57 25 25-56 56z"/>
<glyph unicode="&#42;" d="M334 229l-52 27 6-35-40 14c70-50 118-112 162-191 22-41 71-6 34 34 41-33 78 25 41 41-64 27-118 63-151 110z m-317-22c-14-21 8-51 54-34-55-33-8-81 25-43 34 39 75 74 118 91l12 29-32-7 48 60c-60-42-124-75-199-81-13-1-22-8-26-15z m266 100l44 104-26 81-33-135z m139-88l-121 62 112-9z m-168 103l-93 147 2-111z m-25-113l-60-79 46 10z m83 93l85 39-56 1z m-64-94l19-118 36 19z"/>
<glyph unicode="&#43;" d="M92 93c-22 22-48 31-59 21-11-11-2-38 20-60 22-22 49-31 60-20 11 11 1 37-21 59z m10-46c-6-8-25-2-42 13-16 15-24 33-17 41 7 7 26 1 42-14 17-14 24-33 17-40z m-15 39c0 0-1 1-2 1 1 0 2-1 2-1z m14-18c0 1-1 1-1 2 0-1 1-1 1-2z m-1 2c-1 1-1 1-1 2 0-1 0-1 1-2z m-9 11c0 1-1 1-1 2 0-1 1-1 1-2z m7-9c0 1-1 2-1 2 0 0 1-1 1-2z m-10 13c0-1 1-1 2-2-1 1-2 1-2 2z m17-29c0 1 0 2-1 3 1-1 1-2 1-3z m-8 18c-1 1-1 2-2 2 1 0 1-1 2-2z m6-10c-1 1-1 2-2 4 1-2 1-3 2-4z m2-10c0 1 0 1 0 2 0-1 0-1 0-2z m-1 6c0 1-1 2-1 3 0-1 1-2 1-3z m-9 17c0 0-1 1-1 2 0-1 1-2 1-2z m-1 2c-1 0-2 1-2 2 0-1 1-2 2-2z m302 255l7 102-76-28c3 35 23 64 57 94l-64-16-139-139c-46-46 1-88-48-137l-92-92 0 0c13 2 34-7 51-25 15-14 23-30 25-43l87 88c50 49 91 2 138 48l160 161z m-311-247c0 1-1 2-1 2 0 0 1-1 1-2z m-2 2c0 1-1 1-1 2 0-1 1-1 1-2z m-25 14c0 0 0 0-1 0 1 0 1 0 1 0z m23-12c0 0-1 1-1 1 0 0 1-1 1-1z m-21 12c0 0-1 0-1 0 0 0 1 0 1 0z m-5 1c1 0 1 0 2 0-1 0-1 0-2 0z m24-12c-1 1-2 2-3 3 1-1 2-2 3-3z m-12 8c0 0 0 0-1 0 1 0 1 0 1 0z m4-2c-1 0-2 1-3 2 1-1 2-2 3-2z m-7 3c-1 1-2 1-4 2 2-1 3-1 4-2z m2 0c-1 0-1 0-2 0 1 0 1 0 2 0z m7-4c0 0-1 0-1 0 0 0 1 0 1 0z m2-2c0 1-1 1-1 1 0 0 1 0 1-1z"/>
<glyph unicode="&#44;" d="M373 487c-34 0-68-14-94-44l37-144-34 0 36-132-117 188 50-6-49 116c-82 48-197 7-194-111 5-138 191-184 247-331 60 147 251 184 247 331-3 82-65 132-129 133z"/>
<glyph unicode="&#45;" d="M201 286l40 15-109 173 100 0 96-192-48-16 80-174c76 84 91 236 91 387l-396 0c0-204 42-405 198-448 38 8 69 24 94 47z"/>
<glyph unicode="&#46;" d="M498 209c0 106-35 229-124 286l-23-36c22-14 34-27 46-50-8-11-14-24-19-39 4-9 7-25 7-36l-36 6-31-34-25 51c-33-41-42-57-93-54l-14 44-51-10c0 0-10 51-25 62 4 19 17 35 41 50l-23 41c-82-58-116-173-116-281 93-47 120-100 115-156 14-8 28-15 45-20 23-6 48-9 73-9 25 0 51 3 75 9 22 6 42 14 60 25-1 55 29 109 118 151z m-310-28c-29-16-62-12-74 9-7 12-5 27 2 41 13 0 28 2 45 9 15 6 30 14 41 22 6-3 11-8 15-13 12-22-1-52-29-68z m27-102c10 36 21 72 40 108 0 0 0 0 0 0 0 0 0 0 0 0 19-36 33-72 41-108-27 8-54 9-81 0z m181 111c-12-21-45-25-73-9-28 16-42 46-29 68 3 5 8 10 14 13 12-8 26-16 42-22 16-7 31-9 44-9l0 0c8-14 9-29 2-41z m-291 204c6 14 9 31 26 42m271-32c-6 11-15 30-27 39"/>
<glyph unicode="&#47;" d="M186 491l107 0c-20-121-87-120-107 0z m210-308c0 72-70 109-114 151-47 45 16 126 16 126l-12 0c-23-79-70-79-93 0l-10 0c0 0 58-81 12-127-42-43-110-80-110-150 0-4 0-149 0-153l312-2c-1 5-1 150-1 155z m-145 121c12 0 22-9 22-22 0-12-10-22-22-22-12 0-22 10-22 22 0 13 10 22 22 22z m-138-121c0 20 8 37 18 52l127 0c5 6 13 10 22 10 9 0 16-4 22-10l48 0c11-15 18-32 18-52 0-7 0-122 1-128l-256 3c0 6 0 120 0 125z"/>
<glyph unicode="&#58;" d="M250 139l-48-83-171 99 48 83z m107 297l-25-93-190 51 24 93z m-43-152l-37-89-182 75 37 89z m45 130l-15-54c55-14 105-21 153-11-37 33-83 50-138 65z m-45-152l-21-52c52-21 100-34 149-31-33 38-76 61-128 83z m-93-194c48-27 93-46 142-49-27 41-66 69-114 98z"/>
<glyph unicode="&#59;" d="M353 266l-83-51-84 51 0-151 84-47 83 47z m113 109c6-26-6-77-34-94 5 57-4 141-36 171 32-172-93-152-49-99 30 34 0 102-17 112 11-42-14-70-55-61-27 5-44 44-12 89l0 0c-50-12-80-66-50-111 22-33 45-61 8-79-23-11-50 17-46 50 5 40-18 79-46 88 46-107-43-177-24-77-30-16-33-59-11-123-41 17-55 67-39 121-35-29-53-131-14-184 95-129 207-162 227-162 21 0 117 34 189 115 42 47 51 169 9 244z m-85-263l-111-61-112 61 0 170 223 0z"/>
<glyph unicode="&#60;" d="M101 148c-50-14-82-34-82-56 0-41 106-74 237-74 131 0 237 33 237 74 0 22-32 42-82 56 18-9 28-19 28-30 0-32-82-59-183-59-101 0-182 27-182 59 0 11 10 21 27 30z m203 310l0 0 0 0z m70-123c-6-82-71-50-44 59 6 26-12 57-26 64 27-67-59-117-57-35-40-37-12-84 5-121 13-29 12-54-10-64-16-7-34 12-40 31-2 8-1 21 1 38-21-43-54-46-38 31-60-68-38-198 45-238-13 25-20 57-14 83 36-78 121-1 126 69 13-44 11-109-11-156 90 35 110 171 63 239z"/>
<glyph unicode="&#61;" d="M389 386c23-56 11-99-19-123 15 191-196 114-135 231-174-48 14-145-51-180-32-18-85-15-64 74-116-95-69-321 84-363-42 22-71 65-71 116 0 72 59 131 131 131 73 0 132-59 132-131 0-45-24-86-59-109 183 63 158 297 52 354z m-167-235c0-14 12-26 26-26 14 0 25 12 25 26 0 14-11 26-25 26-14 0-26-12-26-26z m42 49c-41 0-75-34-75-76 0-42 34-76 75-76 42 0 76 34 76 76 0 42-34 76-76 76z m0-124c-26 0-47 22-47 48 0 8 2 16 5 23 0 1 0 3 0 4 0 14 12 26 26 26 5 0 10-2 15-5 0 0 1 0 1 0 27 0 48-22 48-48 0-26-21-48-48-48z"/>
<glyph unicode="&#62;" d="M107 494c41-58-63-26-88-2 1-40 100-100 148-72 29 16-30 69-60 74z m158-167c11-70 86-41 102-123-40 31-156-13-102 123z m-60 110l1-2c120-98-4-175-65-48 16-83-78-44-90 30-64-135 121-136 127-228 3-53-78-20-114 48 244-521 749 13 141 200z m173-180c-21-58 102-114 16-170 26 34 3 113-87 109 116-72 42-207-20-93 1-35 12-55 27-64-61 12-107 65-107 129 0 39 17 74 44 99 0 14 4 34 14 60 3-18 10-30 19-38 17 7 36 12 56 12 44 0 85-19 109-53 44-75-64-27-71 9z m-114-115c41-22-8 55-34 61 43 5 111-55 92-83-15-20-55 7-58 22z"/>
<glyph unicode="&#63;" d="M404 165c0-81-66-148-147-148-82 0-148 67-148 148 0 82 66 148 148 148 81 0 147-66 147-148z m-248 216c25-17 39-59 33-84 11 5 21 9 33 12-19 15-32 54-17 82 13 26-11 53-37 45-30-9-28-44-12-55z m125-70c17-3 33-8 47-17-12 35 5 95 46 120 24 14 29 66-14 79-37 11-70-27-52-64 22-44 4-99-27-118z m-166-103c8 27 25 52 46 70-30 34-49 81-52 129-4 59-51 73-78 55-27-19-34-70 20-102 51-31 74-96 64-152z m357 183c-33 15-82-12-82-62-1-24-9-46-25-63 19-21 33-48 37-77-5 52 1 81 32 89 95 27 77 95 38 113z"/>
<glyph unicode="&#64;" d="M497 294c-91 51-191 33-268-48 91-49 192-32 268 48z m-439 179c100-29 157-112 155-222-99 29-158 112-155 222z m165-245c85-34 113-103 75-183-84 34-113 103-75 183z m-16 5c-83 34-151 5-183-77 83-33 152-4 183 77z"/>
<glyph unicode="&#91;" d="M405 121c61 45 93 141 5 183 39-61-13-105-61-42-38 72 83 114-68 227l0 0c48-72-18-146-63-59 27-145-66-166-75-75-77-68-58-154-15-218l-63-36c4-38 21-68 52-90l85 49c4-29 28-51 58-51 22 0 41 12 51 30l108-29c24 29 33 63 27 100z m-252 116c26-39 107-10 97 60 11-32 38-29 66 20-38-102 21-169 61-138 2-15-5-32-16-46l-120 32c-8-8-14-18-19-28l-20 6c-1 0-2 1-3 1 0 0 0 0 0 0-1 1-2 1-3 2 0 0 0 0 0 0-1 0-2 1-2 1-1 0-1 0-1 0-1 1-2 1-2 2-1 0-1 0-1 0-1 1-1 1-2 1 0 1-1 1-1 1 0 0-1 1-1 1-1 0-1 1-2 1 0 1-1 1-1 1 0 1-1 1-1 1 0 0-1 1-1 1-1 1-2 1-2 2-1 0-1 0-1 1-1 1-3 3-4 4-16 19-24 47-21 74z m21 227c-64-32-15-60-14-92 44 39-4 53 14 92z"/>
<glyph unicode="&#93;" d="M172 376c-18-4-45-35-33-47l73-73-73-73c-15-15 29-59 44-44l73 73 73-73c15-15 59 29 44 44l-73 73 73 73c15 15-29 59-44 44l-73-73-73 73c-3 3-6 4-11 3z m84 120c-133 0-240-107-240-240 0-133 107-240 240-240 133 0 240 107 240 240 0 133-107 240-240 240z m0-60c99 0 180-81 180-180 0-99-81-180-180-180-99 0-180 81-180 180 0 99 81 180 180 180z"/>
<glyph unicode="&#94;" d="M35 367c41 67 140 114 250 114 73 0 138-17 198-60l0-96c-80 61-181 90-278 53 18-19 29-45 29-73 0-61-49-109-109-109-60 0-109 48-109 109 0 23 7 44 19 62z m89-84c13 0 23 11 23 23 0 12-10 22-23 22-12 0-22-10-22-22 0-12 10-23 22-23z m261-47c-13 0-23-10-23-23 0-12 10-22 23-22 12 0 22 10 22 22 0 13-10 23-22 23z m89-83c-41-68-140-115-250-115-73 0-138 17-198 60l0 97c81-62 181-91 278-54-18 19-28 45-28 74 0 60 48 109 109 109 60 0 109-49 109-109 0-23-8-45-20-62z"/>
<glyph unicode="&#95;" d="M233 235c-15 16-26 44-26 76 0 50 31 90 53 90 21 0 53-40 53-90 0-30-9-56-23-72 36 18 62 35 62 91 0 71-67 158-94 158-28 0-93-87-93-158 0-59 29-79 68-95z m109-32l0 24c-27-10-55-15-82-15 3 30 2 60-4 100l-2-100c-26 1-52 6-77 15l0-95c-3-26-22-31-22-54 0-19 15-25 22-17l0-36 165 0 0 88c8-11 27-3 27 21 1 29-24 35-27 69z"/>
<glyph unicode="&#96;" d="M182 491c24-185-94-280-69-372 3-14 10-26 18-37-2 7-4 14-4 22-1 50 51 92 87 161 12-31 24-68 17-116 63 18 111 67 121 118 49-87 42-189-50-241-2-2-4-3-6-4 25 4 48 13 66 28 148 127 26 359-180 441z"/>
<glyph unicode="&#123;" d="M502 208c-124 5-141 45-22 103-51-6-93-14-129-27 18 30 23 56 11 67-3 4-8 6-14 6l-106 144-73 0 136-155-2-1c-24-13-52-34-79-61-4-3-7-7-10-10l-196 174 0-200 133-90c0-5 2-10 6-13 11-12 38-6 70 13-14-37-23-82-28-139 37 129 80 110 114 7-19 109 99 61 185-6-67 102-125 178 4 188z m-302-22c0 0 0 0 0 0-6 6-4 18 3 32 0 0 0 0 0 0 1 1 1 2 2 3 0 0 0 0 0 0 0 1 1 2 1 3 0 0 0 0 0 0 1 1 1 2 2 3 0 0 0 0 0 0 1 1 1 2 2 3 0 0 0 0 0 0 1 1 1 2 2 3 0 0 0 0 0 1 1 0 1 1 2 2 0 0 0 0 0 1 1 1 1 1 2 2 0 0 0 1 1 1 0 1 1 1 1 2 0 0 1 1 1 1 1 1 1 2 2 2 0 1 0 1 1 1 0 1 1 2 1 2 0 1 1 1 1 2 1 0 1 1 2 2 0 0 1 1 1 1 0 1 1 1 1 2 1 0 1 1 2 1 0 1 1 1 1 2 1 1 1 1 2 2 0 0 1 1 1 1 1 1 2 2 2 2 1 1 1 1 1 1 1 1 2 2 3 3 1 1 2 2 3 4 1 0 1 0 1 0 1 1 2 2 3 3 0 0 0 0 1 1 1 0 1 1 2 1 0 1 1 1 1 2 1 0 1 1 2 1 1 1 1 1 2 2 0 0 1 1 1 1 1 0 1 1 2 2 0 0 1 0 1 1 1 0 2 1 2 1 1 0 1 1 1 1 1 1 2 1 3 2 0 0 0 0 1 0 0 1 1 2 2 2 0 0 0 1 1 1 0 0 1 1 2 1 0 1 0 1 1 1 1 0 1 1 2 2 0 0 1 0 1 0 1 1 1 1 2 2 0 0 1 0 1 0 1 0 2 1 2 1 0 1 1 1 1 1 1 0 2 1 2 1 0 0 1 0 1 0 1 1 1 1 2 2 0 0 0 0 0 0 1 0 2 1 3 1 0 0 0 0 0 0 15 8 27 9 33 4 0 0 0 0 0 0 7-7 3-23-8-42-29-17-52-40-70-70-20-13-37-17-44-10z"/>
<glyph unicode="&#124;" d="M500 260l0 52-115 0c-8 58-54 104-111 112l-19 69-18-69c-58-8-103-54-112-112l-115 0 0-52 52 0 0-177-52 0 0-52 183 0-13-23 152 0-13 23 181 0 0 52-52 0 0 177z m-226-177l-37 0 0 177 37 0z m-143 177l37 0 0-177-37 0z m248-177l-36 0 0 177 36 0z"/>
<glyph unicode="&#125;" d="M222 387c-16 2-22-79-25-118l-67-1c-3 104-4 114-20 142-7 12-28 14-28 14 0 14-1 68-1 68 38 0 64-26 80-56l2 5c8 17 27 50 64 50 117 0 43-322 145-296 7 2 17 24-4 24-37-6-52-211-175-194-11 1-18 5-18 5l8 73c23-3 54 15 58 26 17 49 45 168 134 168 34 0 72-33 72-90 0-95-169-154-207 49-9 43-5 134-18 131z"/>
<glyph unicode="&#126;" d="M368 293c-23-27-11-22-54-43l54 43c-13 17-27 33-41 46-26-39-44-45-79-60l78 61c-24 22-51 37-79 41-8 1-16 0-24-3-32 48-17 65 5 108-31-11-36-16-52-67-18 34-76 58-124 64 44-30 77-58 77-95-36 7-65 1-105-20 64 6 130 3 150-25-10-13-16-28-16-42 1-141 309-311 324-274 7 18-40 167-114 266z"/>
<glyph unicode="&#92;" d="M254 487c-127 0-231-103-231-230 0-69 31-131 79-173l0 139-14 23 7 0 45 114 43-114 8 0-14-23 0-18 37 0 0 123-14 23 8 0 44 114 0 0 0 0 44-114 8 0-15-23 0-88 37 0 0 34-14 22 8 0 43 115 45-115 7 0-14-22 0-194c51 42 83 106 83 177 0 127-103 230-230 230z"/>
<glyph unicode="&#57344;" d="M409 501l0-68-47 0 0 68-78 0 0-68-47 0 0 68-77 0 0-68-47 0 0 68-77 0 0-114 66-62 0-185c36-46 87-89 158-130 72 42 124 87 160 134l0 181 66 62 0 114z m-148-263l-113 0 0 109-46 44 159 0z m113-74c-25-33-62-65-112-94l0 167 112 0z"/>
<glyph unicode="&#57345;" d="M463 493l-35-57c-30 9-75 7-103 0l-34 56c-55-103-39-168 3-200-6-4-13-9-20-14-176 141-334-17-230-158l1 0c18-27 40-44 63-53 33-12 67-9 100-4 33 5 66 11 97 9 31-3 62-11 90-42 19-21 47 2 24 25-35 34-73 47-110 49-36 3-72-4-104-9-32-4-60-6-84 3-11 4-22 11-33 22l360 0c17 60 19 123 0 163 58 31 81 102 15 210z m-108-155c-37-18-54-3-61 27 36 22 58 4 61-27z m46 0c3 31 25 49 61 27-7-30-24-45-61-27z"/>
<glyph unicode="&#57346;" d="M502 191c-23 18-51 27-79 28l0 0c-4 0-9 0-13-1-17-1-34-6-50-14l-13 12c12 33 4 71-22 97l-59 42c-17 18-41 26-64 24-11-1-21-4-31-10l-5 4c8 21 4 45-12 62l-37 26c-11 11-25 16-40 15-3-1-6-1-9-2l-29 27-29 0 0-28 26-30c-7-17-3-38 11-52l26-37c12-12 29-18 46-17 5 1 10 2 15 4l5-5c-16-30-11-69 14-94l41-59c21-21 48-30 75-28 9 1 18 3 26 7l11-13c-23-45-19-101 13-142l115 0-33 40c-5 6-9 12-11 19 14-3 28 1 39 12 12 12 16 29 12 44 8-2 15-6 22-12l39-36 0-67 0 0z m-429 220c-3 4-5 9-4 14 3 1 7 3 10 6 3 2 5 6 6 9 4 0 9-1 12-5l30-26c1-2 2-4 3-6-6 2-14 1-19-5-6-6-8-15-5-22-3 1-5 2-8 5z m120-135c-3 3-5 6-6 9 9-3 20-1 27 7 9 8 10 21 5 31 5-1 10-4 14-7l48-44c2-3 4-6 6-9-10 2-21-1-29-9-10-11-12-25-7-37-6 1-12 4-17 9z"/>
<glyph unicode="&#57347;" d="M179 322c3-5 5-11 5-18 0-21-19-42-44-46-24-4-44 9-44 30 0 5 1 9 2 13l-87-23 0-116c3 2 7 4 12 5 24 6 44-7 44-29 0-22-20-44-44-49-5-1-9-2-12-1l0-34 216 56c-6 8-9 17-9 27 0 26 24 48 55 48 30 0 54-21 55-47 1 0 2 0 3-1l168 44 0 224z m217-120c-16 0-29 11-29 25 0 15 13 26 29 26 17 0 30-11 30-26 0-14-13-25-30-25z m-166 265l-17-14c20-10 24-31 8-47-16-15-45-19-65-9-2 1-4 2-5 3l-134-113 458 121c-51 44-151 66-245 59z"/>
<glyph unicode="&#57348;" d="M204 76c-4 9-20 11-24-1-2-10 8-18 17-16 0-28 45-30 45-2 0 21-25 28-38 19z m248 216c0 22-34 24-34 2 0-21 34-23 34-2z m-329-82c-4 14-29 16-34-2-4-15 14-23 26-18 1-23 40-28 47-2 6 23-23 34-39 22z m-91 130c0-22 35-24 35-2 0 21-35 23-35 2z m149-52c0-14 16-20 26-15l-24 24c-1-3-2-5-2-9z m139 137c0 22-35 24-35 2 0-21 35-23 35-2z m23-95c0 0 0 0 1 0 3-10 20-13 24-1 2 9-5 15-12 17 8 24-21 57-50 40-37-21 0-77 37-56z m-43-273c-14-8-2-31 12-23 14 8 2 31-12 23z m-180 269c0-34 41-43 59-25l-48 48c-7-5-11-13-11-23z m-44 77l-38 38c-8-3-14-11-14-22 0-25 29-34 45-23 0-1 0-1 0-1 0-17 20-22 29-14z m8 74c0 17-22 22-31 12l25-24c4 2 6 6 6 12z m42-60l37-37 39-38c6 3 11 10 11 20 0 16-12 25-25 27 3 4 4 9 4 15 0 30-35 40-54 28-4 16-27 19-36 9z m334-317c17 1 33 13 33 35 0 20-12 33-28 38 0 1 1 3 1 4 0 6-2 12-4 17 7 3 12 9 12 18 0 7-3 13-7 16 1 1 2 1 2 1 14 8 3 31-11 23-7-4-8-12-5-17-6 0-12-1-16-4-3 18-18 28-34 29 1 3 2 6 2 10 0 41-64 46-67 7-12 3-25 3-36-2 1 4 1 8 1 12 0 42-54 53-76 29l61-60 39-39 7-7c0 0 0 0 0 0 0 0 0 0 0 0 0 0 0 0 0 0 0 0 0 0 0 0 0 0 0 0 0 0 0 0 0 0 1 0 0 1 0 1 0 1 0 0 0 0 0 0 0 0 0 0 1 1 0 0 0 0 0 0 0 0 0 0 0 0 0 0 1 0 1 0 1 2 3 4 5 6 0 0 0 0 0 0 5 7 13 16 20 27 0 1 0 1 0 1 1 1 1 2 2 2 0 1 0 1 0 1 1 1 1 2 2 3 0 0 0 1 0 1 0 0 1 1 1 1 0 0 0 0 0 0 2 5 5 11 7 16 3-4 6-9 10-14 1-2 3-4 4-6 0-1 0-1 0-1 7-11 14-23 20-35 1 0 1 0 1-1 1-2 2-4 3-6 1-1 1-1 1-2 1-2 2-4 3-6 6-13 11-25 16-38 0 0 0 0 0 0 0-2 1-3 2-5 0 0 0 0 0-1 0-1 1-2 1-4 0 0 0 0 0-1 1-1 1-2 1-3 1-1 1-1 1-2 0-1 1-2 1-3 4-14 7-27 8-41 1-10 2-21 1-31-13 0-27 2-42 5 0 0 0 0 0 0-15 3-30 7-46 12-2 1-3 1-5 2-1 0-2 0-3 1-12 4-23 8-35 13-2 0-3 1-5 2-1 0-1 1-2 1-2 1-3 1-5 2-1 0-2 1-2 1-14 6-27 13-39 20-7 4-15 8-21 13 7 3 13 6 19 9 0 0 0 0 0 0 0 0 0 0 0 1 1 0 1 0 2 1 0 0 1 0 1 0 1 0 1 1 2 1 0 0 1 0 1 1 0 0 1 0 1 0 0 0 0 0 0 0 27 15 34 23 34 23l-34 34-7 8-47 46c-10-4-16-13-16-26 0-20 15-31 30-33 0-2 0-3 0-5 0-8 3-15 7-20-11 1-22 0-30-4 3 14-21 22-25 7-3-10 6-17 13-17-4-6-7-13-7-23 0-36 39-50 64-38 0-1 0-2 0-3 0-35 47-43 62-20 7-5 16-8 24-8-2-4-3-10-3-16 0-45 64-55 81-22 20-24 63-26 73 10 7 25-8 44-27 52z"/>
<glyph unicode="&#57349;" d="M311 367l55 0 0-55-55 0z m0-111l55 0 0-55-55 0z m-55-55l55 0 0-55-55 0z m-166 166l55 0 0-55-55 0z m55 55l55 0 0-55-55 0z m111 0l55 0 0-55-55 0z m-111-110l55 0 0-56-55 0z m55-56l56 0 0-55-56 0z m56 56l55 0 0-56-55 0z m-56 55l56 0 0-55-56 0z m-55-166l55 0 0-55-55 0z m-55 55l55 0 0-55-55 0z m221-110l55 0 0-55-55 0z m55 166l55 0 0-56-55 0z m-166-166l56 0 0-55-56 0z m166 55l55 0 0-55-55 0z m0 221l55 0 0-55-55 0z m-351 75l0-481 481 0 0 481z m462-130l-56 0 0-55 56 0 0-56-56 0 0-55 56 0 0-55-56 0 0-55 56 0 0-56-56 0 0 56-55 0 0-56-55 0 0 56-55 0 0-56-56 0 0 56-55 0 0-56-55 0 0 56-55 0 0 55 55 0 0 55-55 0 0 55 55 0 0 56-55 0 0 55 55 0 0 55-55 0 0 55 55 0 0-55 55 0 0 55 55 0 0-55 56 0 0 55 55 0 0-55 55 0 0 55 55 0 0-55 56 0z m-387-221l55 0 0-55-55 0z"/>
<glyph unicode="&#57350;" d="M311 461c8-2 16-5 23-11 34-27 14-54-13-48 36-39 1-70-37-50 10-26-22-41-50-15l0 0c-1 2-3 3-4 5-21-45-26-76-27-102 0-12 1-19 4-23-43-42-110-91-136-101-25-10-35-1-49-18-13-16 12-53 41-33-26-41 27-74 43-16 13 50 83 108 132 149 1 0 1-1 1-2 38-2 99-5 181 38 173 89 39 370-109 227z m-248-396z m396 357c26-52 7-94-63-126 35 38 64 79 63 126z m-178-199c65 23 133 59 190 100-38-52-101-102-190-100z"/>
<glyph unicode="&#57351;" d="M256 496c-40 0-72-32-72-72 0-40 32-72 72-72 40 0 72 32 72 72 0 40-32 72-72 72z m0-48c13 0 24-11 24-24 0-13-11-24-24-24-13 0-24 11-24 24 0 13 11 24 24 24z m48-192c0-27-21-48-48-48-27 0-48 21-48 48 0 27 21 48 48 48 27 0 48-21 48-48z m-48-96c-40 0-72-32-72-72 0-40 32-72 72-72 40 0 72 32 72 72 0 40-32 72-72 72z m0-48c13 0 24-11 24-24 0-13-11-24-24-24-13 0-24 11-24 24 0 13 11 24 24 24z m208 264c-20 34-64 46-99 26-34-20-46-64-26-98 20-34 64-46 98-26 35 20 47 64 27 98z m-42-24c7-11 3-26-9-33-11-6-26-2-32 9-7 11-3 26 8 33 12 6 27 2 33-9z m-249-144c-20 34-64 46-98 26-35-20-47-64-27-98 20-34 64-46 99-26 34 20 46 64 26 98z m-42-24c7-11 3-26-8-33-12-6-27-2-33 9-7 11-3 26 9 33 11 6 26 2 32-9z m-83 192c-20-34-8-78 27-98 34-20 78-8 98 26 20 34 8 78-26 98-35 20-79 8-99-26z m42-24c6 11 21 15 33 9 11-7 15-22 8-33-6-11-21-15-32-9-12 7-16 22-9 33z m249-144c-20-34-8-78 26-98 35-20 79-8 99 26 20 34 8 78-27 98-34 20-78 8-98-26z m42-24c6 11 21 15 32 9 12-7 16-22 9-33-6-11-21-15-33-9-11 7-15 22-8 33z"/>
<glyph unicode="&#57352;" d="M256 496l0-72-168 0 48-48-120-120 72 0 0-168 48 48 120-120 0 72 168 0-48 48 120 120-72 0 0 168-48-48z m0-120c66 0 120-54 120-120 0-66-54-120-120-120-66 0-120 54-120 120 0 66 54 120 120 120z m48-120c0-27-21-48-48-48-27 0-48 21-48 48 0 27 21 48 48 48 27 0 48-21 48-48z"/>
<glyph unicode="&#57353;" d="M256 493c-130 0-236-106-236-236 0-130 106-236 236-236 130 0 235 106 235 236 0 130-105 236-235 236z m0-413c-98 0-178 79-178 177 0 98 80 178 178 178 98 0 177-80 177-178 0-98-79-177-177-177z m0 305c-71 0-129-57-129-128 0-71 58-128 129-128 71 0 128 57 128 128 0 71-57 128-128 128z m19-223l-19 71-19-71c-38 7-69 38-76 76l71 19-71 19c8 39 38 69 76 76l19-70 19 70c38-8 68-38 76-76l-70-19 70-18c-8-39-38-69-76-77z"/>
<glyph unicode="&#57354;" d="M342 308c13 5 29 7 46 7-17 66-67 155-134 188-66-31-121-121-135-188 18 0 33-2 46-7-32-51-55-134-55-251 47-28 93-43 139-44-53 4-95 74-95 159 0 50 15 95 37 124 7-5 13-10 19-16l15 16c-5 6-11 12-17 17 0 0 0 0 0 0 0 0 0 0 0 0-1 0-1 1-1 1-1 0-2 1-3 2 0 0 0 0-1 0-1 1-1 2-2 2 0 0-1 1-1 1-1 0-2 1-3 2 0 0 0 0-1 0-1 1-2 1-3 2 0 0 0 0 0 1-2 0-3 1-4 2-1 0-1 0-1 0-1 1-2 2-3 2-1 0-1 1-2 1 0 0-1 1-1 1 0 0 0 0 0 0-5 3-10 5-16 8 13 31 32 79 57 82 9 1 20-5 31-21 35 58 68-19 87-61-5-3-10-6-15-9 0 0 0 0 0 0 0 0-1 0-1-1-1 0-2 0-2-1-1 0-2-1-3-1 0 0-1-1-1-1-1-1-2-1-3-2-1 0-1-1-2-1-1-1-1-1-2-2-1 0-1 0-1 0-1-1-2-1-3-2 0 0 0-1-1-1-1 0-1-1-2-2-1 0-1 0-1 0-1-1-2-2-3-3-7-5-13-11-19-17l15-16c6 6 12 12 19 16 23-29 37-73 37-123 0-85-42-155-94-159 45 1 90 15 139 44 0 116-23 200-56 251z m-142-121c12 4 23 6 35 7 0-50 1-96 20-144 19 47 17 94 17 144 12-2 24-4 35-7l0 18-41 0c-7 23-6 45 1 68l-26 0c7-23 9-45 1-68l-42 0z m35 172c0 5-7 9-16 9-9 0-16-4-16-9 0-5 7-9 16-9 9 0 16 4 16 9z m69 0c0 5-7 9-16 9-9 0-16-4-16-9 0-5 7-9 16-9 9 0 16 4 16 9z"/>
<glyph unicode="&#57355;" d="M342 172l-47 63c3 6 5 13 5 20 0 16-8 30-21 37l0 49 23 0-45 129 0 0-45-129 22 0 0-50c-12-7-20-21-20-36 0-23 20-43 43-43 1 0 2 0 2 0l49-65-17-13 114-81-46 132z m129 83c0 28-5 55-15 80l39 39-120 120-39-39c-22 8-45 14-70 15l19-48c5-1 11-2 16-4 1 0 3 0 4-1 0 0 1 0 1 0 2-1 3-1 5-2 0 0 0 0 1 0 1 0 2-1 4-1 0 0 0-1 1-1 1 0 3-1 4-2 0 0 1 0 1 0 1 0 3-1 4-2 0 0 1 0 1 0 1-1 3-1 4-2 1 0 1 0 1-1 1 0 3-1 4-2 0 0 1 0 1 0 1-1 3-2 4-2 0-1 1-1 1-1 1-1 2-1 4-2 0 0 0 0 0 0 2-1 3-2 4-3 1 0 1-1 1-1 1-1 3-1 4-2 0 0 0 0 0-1 2-1 3-2 4-3 1 0 1 0 1 0 1-1 2-2 4-3 0 0 0 0 0 0 1-1 3-2 4-4 0 0 0 0 0 0 2-1 3-2 4-3 0 0 0 0 0 0 1-2 3-3 4-4 0 0 0 0 0 0 2-2 3-3 4-4 0 0 0 0 0 0 1-2 2-3 3-4 1 0 1 0 1 0 2-3 4-6 6-9 1 0 1 0 1 0 2-3 4-6 6-9 0 0 0 0 0 0 2-3 4-6 6-9 0 0 0 0 0 0 2-3 3-6 5-10 0 0 0 0 0 0 5-10 9-20 12-31 4-14 6-29 6-44 0-15-2-30-6-44l0 0c-7-26-20-50-38-69l32-87 81 81-39 39c10 25 15 52 15 80z m-104-184l-21 15-21 15c-5-3-12-5-18-7 0 0 0 0-1-1 0 0-1 0-2 0 0 0-1-1-1-1-1 0-2 0-3 0-14-4-28-6-44-6-15 0-29 2-43 6-11 3-22 7-32 11 0 0 0 0 0 0-5 3-9 6-14 9 0 0 0 0 0 0-5 2-9 6-14 9 0 0 0 0 0 0-11 9-22 19-31 31 0 0 0 0 0 0-3 4-6 9-9 13 0 0 0 0 0 0-3 5-6 10-8 15 0 0 0 0 0 0-3 5-5 10-7 15 0 0 0 0 0 0-2 5-4 11-5 16-4 14-6 29-6 44 0 15 2 30 6 44 6 24 18 45 33 63 0 1 0 1 0 1 2 2 4 5 7 8 0 0 0 0 0 0 2 2 5 5 8 7 0 0 0 1 0 1 2 2 5 4 8 7 0 0 0 0 0 0 3 2 6 4 8 6 1 0 1 1 1 1 3 2 6 4 8 5 1 1 1 1 1 1 3 2 6 3 9 5 0 0 0 0 1 0 3 2 6 4 9 5 0 0 0 0 1 0 3 2 6 3 9 4 0 0 1 0 1 1 3 1 6 2 10 3 0 0 0 0 1 0 1 1 3 1 5 2 6 1 12 3 19 4l17 47c-25-1-50-6-72-15l-40 39-119-120 39-39c-10-25-15-52-15-80 0-28 5-55 15-80l-39-39 119-120 40 40c24-10 51-16 79-16 29 0 56 6 80 16l39-39 29 28z"/>
<glyph unicode="&#57356;" d="M443 152c-22 71-120 111-211 128 17-78-3-131 17-198 21-72 103-76 118-7 56-51 96 10 76 77z m-392 60c42 55 113 86 194 57-38-90-11-154-50-204-41-53-112-20-103 47-65-19-79 51-41 100z m111 257c67-39 87-117 82-208-91 52-117 6-182 33-71 30-56 120 12 119-45 68 26 92 88 56z m183-7c-71-18-106-102-106-197 99 24 136-41 204-25 72 18 64 109-11 129 46 55-19 110-87 93z"/>
<glyph unicode="&#57357;" d="M324 308c-4 0-7 0-10-1 9 13 15 29 15 46 0 40-32 73-73 73-40 0-73-33-73-73 0-17 6-33 15-46-3 1-6 1-9 1-41 0-74-33-74-74 0-40 33-74 74-74 17 0 32 6 44 15l-37-89 120 0-38 91c13-10 29-17 46-17 40 0 73 34 73 74 0 41-33 74-73 74z"/>
<glyph unicode="&#57358;" d="M457 387l-185 107c-24 14-55 6-69-19l-164-284c-14-24-6-55 18-69l185-107c25-14 55-5 69 19l165 284c13 24 5 55-19 69z m-221 65c6 10 20 14 31 8 10-6 14-20 8-30-6-11-20-15-31-9-10 7-14 20-8 31z m34-266c-9 6-16 15-19 24l-4-25 0 0-6-37-66 41 0 0 50 36c-1 0-2 0-3 0 0 0 0 0 0 0-1 0-1 0-2 0 0 0 0 0-1 0 0 0 0 0-1 0 0 0 0 0-1 0 0 0 0 0-1 0 0 0 0 0 0 0-1 0-1 0-2 0 0 0 0 0 0 0-1 0-1 0-1 1-1 0-1 0-1 0 0 0-1 0-1 0 0 0-1 0-1 0 0 0-1 0-1 0 0 0 0 0-1 1 0 0 0 0-1 0 0 0 0 0-1 0 0 0 0 0 0 0-1 0-1 1-1 1-1 0-1 0-1 0-1 0-1 0-1 0 0 0-1 1-1 1 0 0 0 0-1 0 0 0 0 0-1 1 0 0 0 0 0 0-1 0-1 0-2 0 0 1 0 1 0 1-1 0-1 0-2 1 0 0 0 0 0 0 0 0 0 0 0 0-1 0-1 1-2 1 0 0 0 0 0 1-1 0-1 0-2 0 0 1 0 1 0 1-1 0-1 0-1 1-1 0-1 0-1 0 0 1-1 1-1 1 0 0 0 1-1 1 0 0 0 0 0 1-1 0-1 0-1 0 0 1-1 1-1 1 0 1-1 1-2 2 0 0 0 0 0 1 0 0-1 0-1 1 0 0 0 0 0 0 0 1-1 1-1 2 0 0 0 0 0 0-1 0-1 1-1 1 0 0 0 0 0 1-2 2-3 5-5 8 0 0 0 0 0 0-4 13-3 29 5 41 13 23 43 30 65 16 2-1 3-2 5-4-1 10 1 21 7 30 0 0 0 0 0 0 0 0 0 0 0 0 0 1 0 1 0 1 0 0 1 1 1 1 0 1 0 1 1 1 0 1 0 1 0 1 1 0 1 1 1 1 0 0 1 1 1 1 0 0 0 1 0 1 1 0 1 0 1 1 1 0 1 0 1 0 0 1 1 1 1 1 0 1 0 1 1 1 0 0 0 1 1 1 0 0 0 0 0 1 1 0 1 0 1 0 0 0 1 1 1 1 0 0 1 0 1 1 0 0 1 0 1 0 0 0 1 1 1 1 0 0 0 0 1 0 0 1 1 1 1 2 1 0 1 0 1 0 1 0 1 0 1 1 1 0 1 0 1 0 1 0 1 0 1 0 1 1 1 1 1 1 1 0 1 0 1 0 1 0 1 1 1 1 1 0 1 0 1 0 1 0 1 0 1 0 1 0 1 1 1 1 1 0 1 0 1 0 1 0 1 0 2 0 0 0 0 0 1 1 0 0 0 0 1 0 0 0 0 0 1 0 0 0 1 0 1 0 0 0 1 0 1 0 0 0 1 0 1 0 1 0 1 0 1 0 1 1 1 1 2 1 0 0 1 0 1 0 0 0 1 0 1 0 1 0 1 0 1 0 1 0 1 0 2 0 0 0 0-1 0-1 1 0 1 0 2 0 0 0 0 0 1 0 0 0 0 0 1 0 0 0 1 0 1 0 0 0 1 0 1 0 0 0 1 0 1 0 0-1 1-1 1-1 1 0 1 0 1 0 1 0 1 0 2 0 0 0 0-1 0-1 1 0 1 0 2 0 0 0 0 0 0 0 2-1 3-1 5-2 0 0 0 0 0-1 1 0 1 0 2 0 0 0 0 0 0 0 1-1 1-1 2-2 22-13 29-42 15-64 0 0 0 0 0-1 0 0-1-1-1-2 0 0 0 0 0 0-1-1-1-1-2-2-5-7-13-12-21-15 2-1 4-2 6-3 13-8 21-21 22-34 0-1 0-2 0-3 0 0 0-1 0-1 0 0 0-1 0-1 0 0 0-1 0-1 0-1 0-1 0-1 0-1 0-1 0-1 0-1 0-1 0-1 0-1 0-1 0-1 0-1 0-1 0-2 0 0 0 0 0-1 0 0 0 0 0-1 0 0 0 0 0-1 0 0-1 0-1-1 0 0 0-1 0-2 0 0 0 0 0-1 0 0-1-1-1-1 0 0 0-1 0-1 0 0 0-1 0-1 0 0-1-1-1-1 0 0 0-1 0-1 0 0 0-1-1-1 0 0 0-1 0-1 0-1 0-1 0-1-1-1-1-1-1-1 0-1 0-1-1-1 0-1 0-1-1-2-13-22-43-30-65-16z m7-131c-6-10-20-14-31-8-10 6-14 20-8 31 6 10 20 14 31 8 10-6 14-20 8-31z"/>
<glyph unicode="&#57359;" d="M325 243l14-26c28 4 57-9 72-35 20-34 8-78-26-97-34-20-78-8-97 26-16 27-12 61 8 83l-13 24z m-132 186c0 0-31 114-97 46l9-8c0 0 44 54 76-44l12 3m267-113c-40 70-117 105-192 94l-39 68-112-65 37-64c-54-59-66-150-24-223 53-91 169-122 260-70 91 53 123 169 70 260z m-69-248c-62-35-141-14-177 48-29 50-21 111 16 152l-25 44 38 22c-23 65-53 28-53 28l-6 5c40 42 62-14 67-29l30 18 27-46c51 7 104-17 131-64 36-62 14-142-48-178z m-82 160c0 0-17 64-53 26l4-4c0 0 25 29 43-25l6 1"/>
<glyph unicode="&#57360;" d="M451 358c-14 8-30 10-49 6l0 0c-12-2-25-7-40-14 0 5 1 10 1 15l-1 0c1 2 1 4 1 7 0 38-63 70-141 70-79 0-142-32-142-70 0-3 0-5 1-7l0 0c-1-82 16-163 15-245-1-38 47-69 125-69 78 0 117 31 117 69 0 6 0 11 0 16 41-2 76 16 100 43 25 27 40 62 44 95 4 33-3 68-31 84z m-229 44c60 0 108-16 108-36 0-1 0-1 0-1 0-1 0-1 0-1 0 0 0 0 0 0 0 0 0-1 0-1 0 0 0 0 0 0 0 0 0-1 0-1 0 0 0 0 0 0-1 0-1-1-1-1 0 0 0 0 0 0 0 0 0 0 0-1 0 0 0 0 0 0 0 0 0 0 0-1-1 0-1 0-1 0 0 0 0 0 0 0 0 0 0-1 0-1 0 0 0 0 0 0-1 0-1 0-1-1 0 0 0 0 0 0 0 0 0 0 0 0 0-1-1-1-1-1 0 0 0 0 0 0 0 0 0-1 0-1-1 0-1 0-1 0 0 0 0 0 0-1 0 0 0 0 0 0-1 0-1 0-1-1 0 0 0 0 0 0-1 0-1 0-1 0 0 0 0-1 0-1 0 0-1 0-1 0 0 0 0 0 0 0 0-1-1-1-1-1 0 0 0 0 0 0-1 0-1-1-1-1 0 0 0 0 0 0-1 0-1 0-1-1 0 0 0 0-1 0 0 0 0 0 0 0 0 0-1-1-1-1 0 0 0 0 0 0-1 0-1 0-1 0 0-1-1-1-1-1 0 0 0 0 0 0-1 0-1 0-1-1 0 0 0 0-1 0 0 0 0 0 0 0-1 0-1-1-1-1 0 0-1 0-1 0 0 0 0 0 0 0-1 0-1-1-1-1-1 0-1 0-1 0 0 0-1 0-1 0 0-1 0-1-1-1 0 0 0 0 0 0-1 0-1 0-1 0 0-1-1-1-1-1 0 0-1 0-1 0 0 0 0 0-1 0 0-1 0-1-1-1 0 0 0 0-1 0 0 0 0 0 0 0-1-1-1-1-1-1-1 0-1 0-1 0 0 0-1 0-1 0 0 0-1-1-1-1 0 0-1 0-1 0 0 0 0 0-1 0 0 0 0 0-1-1 0 0 0 0-1 0 0 0 0 0-1 0 0 0 0 0-1 0 0 0 0-1-1-1 0 0 0 0-1 0 0 0 0 0-1 0 0 0 0 0-1 0 0-1 0-1-1-1 0 0 0 0-1 0 0 0 0 0-1 0 0 0 0 0-1 0 0-1-1-1-1-1 0 0-1 0-1 0 0 0-1 0-1 0 0 0-1 0-1 0-1-1-1-1-1-1-1 0-1 0-1 0-1 0-1 0-2 0 0 0 0 0-1 0 0 0 0 0-1-1 0 0-1 0-1 0 0 0-1 0-1 0 0 0-1 0-1 0-1 0-1 0-1 0-1 0-1 0-2-1 0 0 0 0-1 0 0 0-1 0-1 0 0 0-1 0-1 0-1 0-1 0-1 0-1 0-1 0-2 0 0 0 0 0-1-1 0 0-1 0-1 0 0 0-1 0-1 0-1 0-1 0-2 0 0 0 0 0-1 0 0 0-1 0-1 0 0 0-1 0-1 0-1 0-1 0-2-1 0 0 0 0-1 0 0 0-1 0-1 0-1 0-1 0-1 0-1 0-1 0-2 0 0 0-1 0-1 0 0 0-1 0-1 0-1 0-1 0-2 0 0 0 0 0-1 0 0 0-1 0-1 0-1 0-1 0-2 0 0 0-1-1-1-1 0 0-1 0-1 0-1 0-1 0-2 0 0 0-1 0-1 0 0 0-1 0-1 0-1 0-1 0-2 0 0 0-1 0-1 0-1 0-1 0-1 0-1 0-2 0-2 0 0 0-1 0-1 0-1 0-2 0-3 0 0 0 0 0 0 0-1 0-2 0-3 0 0 0 0 0 0 0-1 0-2 0-2 0-1 0-1 0-1 0-1 0-2 0-2 0 0 0-1 0-1 0-1 0-1 0-2 0 0 0-1 0-1 0 0 0-1 0-2 0 0 0 0 0-1 0 0 0-1 1-1 1-1 0-1 0-1 0-1 0-1 0-2 0 0 0-1 0-1 0 0 0-1 0-1 0-1 0-1 0-2 0 0 0-1 0-1 0 0 0-1 0-1 0-1 0-1 0-2 0 0 0 0 0-1 0 0 0-1 0-1 0-1 1-1 1-1 1-1 0-1 0-2 0 0 0-1 0-1 0 0 0-1 0-1 0-1 0-1 0-1 0-1 0-1 0-2 0 0 0 0 0-1 0 0 1-1 1-1 1-1 0-1 0-1 0-1 0-1 0-2 0 0 0 0 0-1 0 0 0-1 0-1 0 0 0-1 0-1 0-1 1-1 1-1 1-1 0-1 0-1 0-1 0-1 0-2 0 0 0 0 0-1 0 0 0-1 0-1 0 0 1-1 1-1 1 0 0-1 0-1 0-1 0-1 0-1 0-1 0-1 0-1 0-1 0-1 0-2 1 0 0 0 0-1 0 0 0 0 0-1 0 0 0 0 0-1 0 0 0-1 0-1 1 0 0-1 0-1 0 0 0-1 0-1 0 0 0-1 0-1 0 0 0-1 0-1 1 0 0-1 0-1 0 0 0-1 0-1 0 0 0-1 0-1 0 0 0-1 1-1 1 0 0-1 0-1 0 0 0-1 0-1 0 0 0-1 0-1 0 0 1-1 1-1 1 0 0-1 0-1 0 0 0-1 0-1 0 0 0 0 1-1 1 0 0 0 0-1 0 0 0 0 0-1 0 0 0 0 0 0 1-1 0-1 0-1 0-1 0-1 0-1 0 0 0-1 0-1 1 0 0-1 0-1 0 0 0 0 0-1 0 0 0 0 0-1 1 0 0 0 0 0 0-1 0-1 0-1 0 0 0-1 0-1 1 0 0 0 0-1 0 0 0 0 0 0 0-1 0-1 1-1 1 0 0-1 0-1 0 0 0 0 0-1 0 0 0 0 1 0 1-1 0-1 0-1 0 0 0 0 0-1 0 0 1 0 1 0 1-1 0-1 0-1 0 0 0 0 0-1 1 0 0 0 0 0 0-1 0-1 0-1 0 0 0 0 1-1 1 0 0 0 0 0 0 0 0-1 0-1 1 0 0 0 0 0 0 0 0-1 0-1 0 0 0 0 1 0 1-1 0-1 0-1 0 0 0 0 0 0 1-1 0-1 0-1 0 0 0 0 0 0 0-1 0-1 1-1 1 0 0 0 0 0 0 0 0-1 0-1 1 0 0 0 0 0 0 0 0 0 0-1 0 0 1 0 1 0 1 0 0 0 0 0 0-1 0-1 1-1 1 0 0 0 0 0 0 0 0 0 0 0 1-1 0-1 0-1 0 0 0 0 0 0 0 0 1 0 1 0 1 0 0-1 0-1 0 0 0 0 1 0 1 0 0 0 0 0 0 0 0 0 1 0 1 0 0 0 0-1 0 0 0 0 0 0 1 0 0 0 0 0 0 0 0 0 0 0 0 0 1 0 1 0 1 0 0 0 0 0 0 0 1 0 1 0 1-1 0-1 0-1 0 0 0 0 1 0 1 0 0 0 0 0 0 0 0 0 1 0 1 0 0 0 0 0 1 0 20 49 36 108 36z m224-124c-3-25-15-54-34-75-19-21-42-33-71-31 4 46 13 92 18 135 41 26 64 26 74 20 11-6 16-24 13-49z"/>
<glyph unicode="&#57361;" d="M367 254c0-61-50-110-111-110-61 0-110 49-110 110 0 61 49 111 110 111 61 0 111-50 111-111z m59-24c4 26 33 44 69 46-3 26-9 51-19 74-33-15-67-13-82 8-16 21-7 54 16 81-19 16-42 29-66 39-12-34-38-57-63-53-26 3-44 32-47 68-26-2-51-8-74-18 15-33 14-67-7-83-21-15-54-8-81 16-16-20-29-41-39-66 34-12 57-37 53-63-4-26-33-44-68-46 2-26 8-51 18-74 18 8 36 11 51 9 13-2 24-7 32-16 15-22 7-55-17-82 19-17 42-30 66-39 13 33 38 56 64 53 26-4 43-33 46-69 26 2 51 9 74 19-15 33-14 67 7 83 10 7 23 9 36 7 15-2 31-10 45-23 16 20 30 42 39 66-34 12-56 38-53 63z m-170-111c-74 0-135 61-135 135 0 75 61 135 135 135 75 0 135-60 135-135 0-74-60-135-135-135z"/>
<glyph unicode="&#57362;" d="M254 491c-130 0-235-105-235-235 0-129 105-234 235-234 129 0 234 105 234 234 0 130-105 235-234 235z m2-436c-112 0-202 90-202 202 0 112 90 202 202 202 112 0 202-90 202-202 0-112-90-202-202-202z m1 343c-78 0-141-63-141-141 0-78 63-141 141-141 78 0 141 63 141 141 0 78-63 141-141 141z m65-208l-25 43 49 0c-4-16-13-31-24-43z m-25 89l25 43c12-11 20-26 24-43z m-15 66l-25-43-25 43c8 3 16 4 25 4 8 0 17-1 25-4z m-65-66l-50 0c5 17 13 32 25 43z m-50-46l50 0-25-43c-12 12-20 27-25 43z m90-69c-9 0-17 1-25 3l25 43 25-43c-8-2-17-3-25-3z"/>
<glyph unicode="&#57363;" d="M463 348l-39-10-5-20-32 32 11 12-8 30-30 8-11-12-32 32 19 6 11 38-29 28-38-10-10-39 14-14-44-12-4 16-30 8-22-22 4-16-44-11 5 19-28 28-38-10-11-38 28-29 20 6-12-44-15 4-22-22 8-30 16-4-12-44-15 14-38-10-11-39 29-28 38 11 5 19 33-32-12-11 8-30 30-9 12 12 32-32-20-6-10-38 28-28 39 10 10 39-15 14 44 12 5-16 30-8 22 22-5 16 45 12-6-20 28-28 39 10 10 38-28 29-20-6 12 44 16-4 22 22-8 30-16 4 12 44 14-14 39 10 10 39z m-101-94c-14-61-120-78-138-109 0 39-80 100-65 164 14 61 92 54 108-5 43 44 109 10 95-50z"/>
<glyph unicode="&#57364;" d="M403 382l28 49-49-28c-77 65-192 62-264-10-72-72-76-187-10-264l-28-49 49 28c76-65 191-62 264 10 72 72 75 188 10 264z m-10 10l30 30z m-138-137l-48 47 48-47 98 98z m-97 98c46 46 117 53 170 20l-121-69-69-121c-33 53-26 124 20 170z m195-195c-46-46-117-53-170-20l90 52 30 17 0 0 1 0 69 122c33-54 26-125-20-171z"/>
<glyph unicode="&#57365;" d="M439 436l-98 57c-3-6-14-25-22-47l-5 3c-65-114-128-220-192-331-20-34-13-75 15-91 29-16 67-2 87 32 64 112 126 218 192 331l-6 4c15 18 26 36 29 42z m-196-144l68 118c-2-20 2-38 20-48 23-13 48 1 68 20l-52-90z"/>
<glyph unicode="&#57366;" d="M441 327l11 24-30-8c-12 10-26 18-40 26l-6 48-31-30c-15 7-30 12-46 17l-7 61-49-48c-14 2-27 4-40 4l-28 69-42-72c-99-15-162-84-94-224 196-52 378 142 394-133 99 108 78 201 8 266z m-223-135c-39-8-81-14-125-12 44-114 208-230 261-91-104-35-94 54-136 103z"/>
<glyph unicode="&#57367;" d="M444 358c-44 71-122 119-188 141-23-7-45-17-66-29l85-66-23-23 83-64-156 49 32 31-85 27c-21-19-40-41-57-66 45-121 45-145 0-266 123-94 252-98 375 0-37 121-37 145 0 266z m-62-134c-31 16-62 26-92 30-12-76-12-152 2-229l-60 0c19 77 16 153 3 229-32-3-63-13-94-30l0 71c79 23 167 15 241 0z"/>
<glyph unicode="&#57368;" d="M474 486c-42-9-84-16-126-20l-71-135 47-21-115-189 41 169-22 10-71-19 59 50 44 130c-69 0-138 7-207 25 31-26 53-95 53-176 0-44-7-84-18-116 31-72 86-123 180-175 91 48 143 96 173 167-12 33-20 76-20 124 0 81 22 150 53 176z"/>
<glyph unicode="&#57369;" d="M253 269l62-61 62-62 61-62 62-61 0 73-287 287 43 42-28 28-69-69c-22 11-43 26-61 44-22 22-38 47-50 74-20-6-33-19-39-40 49-21 93-62 117-111l-67-67 28-28 43 43 281-281 28 0-5 1-9 52-53 10-9 51-52 10-9 52-53 10-9 52-52 9-13 69 19-4-1 0z"/>
<glyph unicode="&#57370;" d="M418 383l63-5c4 6 11 33 4 40l-66 65c-7 7-34 0-39-4l5-62z m68-295c1-1 2-2 3-3-49 51-21 146-97 245l23 31-52 53-31-24c-96 73-187 50-239 92l0 0-4 3c0 1-1 1-2 2 1-1 2-1 2-2l0 0 27-313-103-116 45-45 113 101z m-3 4l-308 24 171 152 17 23c73-87 77-150 120-199z m-390 389c49-42 112-46 200-120l-23-17-150-168z m26-351l210 210 31 19-19-32-5-6-205-204z"/>
<glyph unicode="&#57371;" d="M443 70l-28 38-9-6c-65 69-89 134-121 208 10 23 21 45 33 67l15-9c52 63 67-81 36-140 104 26 195 196 79 263-29-50-71-36-140 4l-48-85 12-7c-6-11-11-21-16-31-5 10-11 20-17 31l13 7-49 85c-69-40-111-54-139-4-116-67-25-237 79-263-32 59-16 203 36 140l15 9c12-22 22-44 32-67-32-74-55-139-121-208l-8 6-29-38 3-2c-2-2-5-4-7-6 10-18 29-29 51-37 2 2 4 3 6 5l13-9 28 38-8 6c45 53 74 115 102 178 27-63 56-125 101-178l-8-6 29-38 12 9c2-2 4-3 7-5 21 8 41 19 51 37-3 2-5 4-7 6z"/>
<glyph unicode="&#57372;" d="M465 139l0 0c-66 22-122 57-171 101l-24-24c44-50 81-106 106-167 23-55 95-12 42 43 63-46 106 26 47 47z m-221 153c-44 52-80 113-111 179-20 43-89 1-49-48-48 44-91-18-40-41 63-29 123-68 175-115z m-195-153c157 53 261 178 333 333 20 43 88 0 48-49 48 45 91-18 41-41-146-67-272-186-333-332-22-55-95-13-42 42-63-46-106 27-47 47z"/>
<glyph unicode="&#57373;" d="M495 265l0 0c-21-7-53-17-86 12l-97 82 95 82-48 57-104-90-104 90-49-57 96-82-97-82c-33-29-66-19-86-12l0 0c-14-34 3-66 48-54-25-42-31-118 31-176 55-52 145 30 94 67-19 14-37 30-45 50 34 31 53 56 32 88 5 6 11 12 18 17l62 53 62-53c6-5 12-11 18-17-22-32-3-57 32-88-8-20-27-36-46-50-51-37 40-119 95-67 62 58 55 134 31 176 45-12 62 20 48 54z m-356-98c-1 16 4 34 20 55z m212 55c16-21 21-39 19-55z"/>
<glyph unicode="&#57374;" d="M137 220l-108-110c54-176 232-39 135 56-19 19-29 38-27 54z m-5-49c10-7 18-14 24-22-29-3-82-43-92-72-5 7-9 15-13 25z m-58-107c29 3 79 46 90 73 36-63-41-124-90-73z m123 145c-12-10-24-19-35-28l31-52c21 12 42 26 63 39 20-13 41-27 63-39l31 52c-12 9-24 18-36 28 119 87 205 187 170 285-35-84-129-163-228-240-99 77-193 156-229 240-34-98 52-198 170-285z m150-43c-97-95 82-232 136-56l-108 110c1-16-8-35-28-54z m0-29c11-27 61-70 91-73-50-51-127 10-91 73z m113-35c-3-10-8-18-12-25-11 29-63 69-92 72 6 8 14 15 23 22z"/>
<glyph unicode="&#57375;" d="M385 162l69 68-29 29c-11-22-24-42-39-61-23 23-46 46-68 68 66 71 127 144 173 232-89-50-164-109-236-174-72 65-147 124-235 174 46-88 106-161 173-232-23-22-45-45-68-68-15 19-29 39-40 61l-28-29 69-68c-27-44-64-77-106-104l28-28c28 42 61 78 104 105l68-68 29 28c-21 12-41 26-60 41 22 22 44 44 66 66 22-22 44-44 67-66-19-15-39-29-60-41l28-28 69 68c42-27 76-63 104-105l28 28c-43 27-80 60-106 104z"/>
<glyph unicode="&#57376;" d="M497 398l-62-67-24 83-52-72-24 56-42-74-41 71-34-72-50 75-19-66-57 75 2-89-82 80 70-228c13-26 72-45 177-47 110-2 178 17 189 47l0 0z m-390-217c-14 0-25 11-25 25 0 14 11 25 25 25 13 0 24-11 24-25 0-14-11-25-24-25z m86-24c-14 0-25 11-25 25 0 14 11 25 25 25 14 0 25-11 25-25 0-14-11-25-25-25z m131 0c-14 0-25 11-25 25 0 14 11 25 25 25 14 0 25-11 25-25 0-14-11-25-25-25z m97 24c-14 0-25 11-25 25 0 14 11 25 25 25 13 0 24-11 24-25 0-14-11-25-24-25z"/>
<glyph unicode="&#57377;" d="M334 383c-118 68-248 64-290-10-43-73 18-188 136-256 117-68 247-63 290 10 42 74-19 189-136 256z m104-224c-28-49-127-44-221 10-95 55-149 139-120 187 28 49 127 45 222-10 94-54 148-138 119-187z m-42 160c6 25 33 48 50 62-19 6-68-5-81-17m-224 64c-17 7-38 29-46 51-10-17-9-46-5-70m178 4c-16 26-20 57-13 74-19-10-38-48-44-64m101-296c22 12 33 47 32 64 14-14 21-54 22-69m74 149c24-6 41-2 52 11 1-19-8-41-18-52m-429 31c0-25-9-41-25-48 19-5 42-3 56 4m114-35c-6 24 6 58 20 69-20 0-49-24-61-34m136-137c17-17 18-43 12-59 17 10 36 35 41 50m-116 26c-25-1-53-29-64-43 0 20 13 60 20 74m261-21c24-4 41-15 52-33 1 20-8 44-18 60m-401 195c17 7 47 6 69-4-5 19-26 39-46 53m235-37c-18-2-44-18-58-38-5 19 3 48 14 69"/>
<glyph unicode="&#57378;" d="M368 358l34 131 0 0-89-69-63 67-63-67-82 64 33-126z m-28 58c14 0 25-11 25-24 0-14-11-25-25-25-13 0-24 11-24 25 0 13 11 24 24 24z m-90 13l24-23-24-32-25 32z m-85-13c13 0 24-11 24-24 0-14-11-25-24-25-14 0-25 11-25 25 0 13 11 24 25 24z m90-129c-48 89-167 56-170-39-3-100 129-126 170-226 38 100 167 132 170 226 3 101-123 121-170 39z"/>
<glyph unicode="&#57379;" d="M256 136c-33 0-60-27-60-60 0-33 27-60 60-60 33 0 60 27 60 60 0 33-27 60-60 60z m210 360l-420 0c-15 0-30-15-30-30l0 0 0-240 60 0 60-60 60 60 60-60 60 60 60-60 60 60 60 0 0 240c0 15-15 30-30 30z"/>
<glyph unicode="&#57380;" d="M419 156c1 2 1 3 1 5 0 17-13 32-35 44 63 70 61 177-6 244-69 69-181 69-250 0-67-67-69-174-6-244-22-12-35-27-35-44 0-2 0-4 1-6-25-15-40-34-40-54 0-50 92-91 206-91 114 0 206 41 206 91 0 21-15 40-42 55z m-277 280c62 61 162 61 224 0 62-62 62-163 0-224-31-31-71-47-111-47-27 0-53 7-77 20 0 0-1 0-1 0-12 7-24 16-35 27-62 61-62 162 0 224z m234-70c14 14 8 44-15 67-23 22-53 29-67 14-14-14-8-44 15-67 22-22 52-29 67-14z m-97-178c29 29 15 89-30 134-45 45-105 58-134 29-29-28-15-88 30-134 45-45 105-58 134-29z"/>
<glyph unicode="&#57381;" d="M432 300l-32 16-74-19 39 67-3 55-59-19 0 34-40 59-54-59 0-90-34 60-36 17-9-43 67-116-77-20-23-28 34-13 67 18-28-48 6-63 33 16 0-33 47-67 47 67 0 73 21-68 36-28 14 43-46 143 83 22z m-183-129l-11 59-3 14-41 13 5 1 26 8 10 3 4 22 18 93 7-34 13-66 3-15 25-8 15-4-17-5-3-1-20-6-1-6-9-42-6-33-7-34z"/>
<glyph unicode="&#57382;" d="M497 370l1 0-10 121-121 10-1 0 0 0 0 0-140-141 0-1-1 0 1-2 8-90-33 33c-5-43-29-66-71-71l18-19-131-130 0-62 54 0 135 135 19-19c6 41 29 66 71 70l-32 33 90-7 1-2 0 2 2-1 0 0z m-147-73l-4 52-53 4 79 79 0 0 4-53 53-4z"/>
<glyph unicode="&#57383;" d="M269 452l-67-56 30-220 38-27 41 25 24 220z m117-147l40 72-16 33-29-12-27-80 7-31z m-239 28l4 28-40 59-26 11-2-29 39-60z m294-55l-55-12-71-169 16-35 47 3 86 161z m-342 17l-20-64 101-160 37-12 9 30-65 202z"/>
<glyph unicode="&#57384;" d="M402 263l0 155-143 82-143-82 0-154-82-47 0-129 112-64 108 63 9 0 96-56 9-5 0 0 4-2 111 64 0 129z m-30-82l-44 26c12 10 27 16 44 16 17 0 33-6 45-16z m-270 26c13 10 28 16 44 16 18 0 34-7 46-17l-44-25z m46 163l43-24c-1-3-1-7-1-10 0-29 18-54 43-65l0-40-85 49z m140-137l0 38c25 11 42 36 42 65 0 2 0 5 0 8l41 23 0-87z m56 182l-42-23c-11 9-26 14-42 14-15 0-29-5-40-13l-42 24 81 47z m-268-262c0 2 0 5 1 7l43-25 0-47c-26 10-44 35-44 65z m98-65l0 46 42 24c0-2 1-4 1-5 0-30-18-55-43-65z m128 65c0 2 0 4 1 6l40-24 0-46c-24 11-41 35-41 64z m95-66l0 47 45 25c0-2 1-4 1-6 0-30-19-56-46-66z"/>
<glyph unicode="&#57385;" d="M280 63c0-14 15-27 31-27l0 0c16 0 33 13 33 27 0 30-28 44-33 95-3-51-31-67-31-95z m216 220c11 19 0 52-18 61l-135-46c-1 2-2 5-3 7l112 81c2 10-2 22-9 32-8 9-18 17-29 18l-115-83c-1 1-3 2-4 4l73 115c-4 17-29 31-50 31l1 0c-3-1-6-1-9-2l-100-157c-14 60-25 125-90 97 22-58 28-122 41-169-31-37-79-80-151-111l0-151 155 0c47 89 92 151 129 152l6 0-32 91 21 7-33 79 69-93-28-7 35-76 150 6c15 15 18 51 3 65l-124-4c0 2 0 4-1 6z"/>
<glyph unicode="&#57386;" d="M207 56l-25 170-51-69c-44 54-48 133-4 192 41 56 112 76 175 56l-9 59 72 10c-105 54-237 26-309-72-73-98-62-233 21-318l-39-53z m224 369l41 56-169-26 25-169 49 66c42-54 45-132 2-190-40-55-110-75-171-57l8-56-76-11c105-55 238-27 310 72 72 97 62 230-19 315z"/>
<glyph unicode="&#57387;" d="M493 437l8 29c-20 19-48 26-75 20l-8-29 14-3-31-116-8 2c-8-12-27-18-48-15l-7-28c13-2 26-3 39-6-43-83-58-185-36-271 65 74 101 161 104 253 13-5 25-10 37-15l8 29c-20 7-33 22-34 36l-8 3 31 115z m-87-174c-10 3-16 13-13 24 0 0 0 0 0 1 2 4 4 7 8 10 0 0 0 0 0 0 0 0 1 0 1 0 0 0 0 0 0 0 1 1 1 1 2 1 0 0 0 0 0 0 0 0 1 1 1 1 0 0 0 0 1 0 0 0 1 0 1 0 0 0 0 0 0 0 1 0 1 1 2 1 0 0 0 0 0 0 1 0 1 0 2 0 0 0 0 0 0 0 0 0 1 0 1 0 1 0 1 0 1 0 0 0 1 0 1-1 0 0 0 0 0 0 1 0 2 0 2 0 1 0 1 0 2 0 0 0 0 0 0-1 1 0 1 0 2 0 0 0 0 0 0 0 0-1 1-1 1-1 0 0 0 0 0 0 1 0 1-1 2-1 0 0 0 0 0 0 0-1 1-1 1-1 0 0 0 0 0 0 1-1 1-1 1-1 0-1 0-1 0-1 1 0 1 0 1-1 1 0 1 0 1 0 0 0 0-1 0-1 1 0 1 0 1 0 0-1 0-1 0-2 0 0 0 0 0 0 1 0 1-1 1-2 0 0 0 0 0 0 0 0 0-1 1-1 0 0 0 0 0 0 0-3 1-6 0-9 0-1 0-1 0-1-3-11-14-17-24-14z m-118 80l-8 0 0 120 14 0 0 29c-24 14-53 13-77 0l0-29 14 0 0-120-8 0c-4-14-22-25-43-27l0-29c14 2 27 3 40 4-20-91-8-194 35-271 44 88 56 182 36 271 13-1 26-2 39-4l0 29c-21 2-38 13-42 27z m-13-52c0-10-9-19-20-19-10 0-19 9-19 19 0 1 0 1 0 1 1 5 2 9 5 12 0 0 0 0 0 0 0 0 1 1 1 1 0 0 0 0 0 0 1 0 1 1 2 1 0 0 0 0 0 0 0 1 1 1 1 1 0 0 0 0 0 0 1 1 1 1 2 1 0 0 0 0 0 0 0 0 1 1 1 1 0 0 0 0 0 0 1 0 1 0 2 0 0 0 0 0 0 0 1 1 1 1 2 1 0 0 0 0 0 0 0 0 1 0 1 0 1 0 1 0 1 0 0 0 1 0 1 0 0 0 0 0 0 0 0 0 0 0 0 0 1 0 2 0 2 0 0 0 0 0 0 0 1 0 1 0 2 0 0 0 0 0 0 0 1 0 1 0 2-1 0 0 0 0 0 0 0 0 1 0 1 0 1 0 1 0 1 0 0 0 1-1 1-1 0 0 0 0 0 0 1 0 1 0 2-1 0 0 0 0 0 0 0 0 1 0 1-1 0 0 0 0 0 0 1 0 1-1 1-1 1 0 1 0 1 0 0 0 0-1 1-1 0 0 0 0 0 0 0-1 1-1 1-2 0 0 0 0 0 0 0 0 1-1 1-1 0 0 0 0 0 0 1-3 2-6 3-9 0 0 0 0 0-1z m-102 6l-7 28c-21-3-40 3-48 15l-8-2-31 116 14 3-8 29c-27 6-55-1-75-20l8-29 14 4 31-115-8-3c-1-14-14-29-34-36l8-29c12 5 24 10 37 15 3-92 39-179 104-253 22 86 7 188-36 271 13 3 26 4 39 6z m-55-10c3-11-3-21-13-24-11-3-21 3-24 14 0 0 0 0 0 1-1 3-1 6 0 9 0 0 0 0 0 0 0 0 1 1 1 1 0 0 0 0 0 0 0 1 0 2 1 2 0 0 0 0 0 0 0 1 0 1 0 2 0 0 0 0 0 0 1 0 1 1 1 1 0 0 0 0 0 0 1 1 1 1 1 1 1 0 1 0 1 1 0 0 0 0 1 1 0 0 0 0 0 0 0 0 1 0 1 1 0 0 0 0 0 0 1 0 1 1 2 1 0 0 0 0 0 0 0 0 1 0 1 1 0 0 0 0 0 0 1 0 1 0 2 0 0 1 0 1 0 1 1 0 1 0 2 0 0 0 1 0 2 0 0 0 0 0 0 0 0 1 1 1 1 1 0 0 0 0 0 0 1 0 2 0 2 0 0 0 0 0 0 0 1 0 1 0 2 0 0 0 0 0 0 0 1 0 1-1 2-1 0 0 0 0 0 0 0 0 1 0 1 0 0 0 1 0 1 0 0 0 1-1 1-1 0 0 0 0 0 0 1 0 1 0 2-1 0 0 0 0 0 0 0 0 1 0 1 0 0 0 0 0 0 0 4-3 6-6 8-10 0-1 0-1 0-1z"/>
<glyph unicode="&#57388;" d="M497 273c-9 21-22 38-40 49 17 9 31 22 42 39-20 16-43 25-67 27 9 13 16 28 17 47-27 2-58 1-86-6 0 16-6 34-22 52-26-7-50-20-66-38-13 20-36 36-65 44-19-15-29-31-32-48-22 12-49 17-79 14-1-18 2-34 8-48-28 1-56-7-83-24 13-16 28-29 44-38-20-9-37-22-50-41 24-11 48-19 72-22-12-14-21-31-24-52 27-4 57-3 84 4-1-16 5-33 18-52 29 8 57 23 75 43 19-51 3-114-35-170-30 75-103 43-133 83-7-65 9-122 98-127 0 0 0 0 0 0l60 0c152-4 167 73 149 151-16-27-55-30-89-45 6 21 8 42 7 63 1-1 3-2 5-3 22 16 32 33 35 50 26-10 57-14 83-14 3 19 0 35-7 48 27 0 55 4 81 14z m-224 47c-1-2-1-5-1-7-3 1-7 3-10 4-3-3-5-5-7-8-2 3-3 6-5 8-4 0-8-1-11-2 0 2 1 4 1 7-4 0-7 1-11 1 2 2 4 4 6 5-3 2-6 3-8 5 3 1 6 2 9 3-2 2-3 4-5 6 4 0 8 0 11 0 0 3-1 5-1 7 4-1 8-2 12-4 3 3 6 5 8 7 2-2 3-5 4-7 4 1 7 2 11 3 0-3-1-5-1-7 4-1 8-1 12-1-2-2-4-4-7-6 3-2 6-3 9-5-3-1-6-2-10-3 2-2 4-4 5-6-4 0-7 0-11 0z"/>
<glyph unicode="&#57389;" d="M322 244l62-17-38 24 18 46-32-37-14 9 0 0-38-45c-17 24-2 68 21 110l28 29 41-26 14-57 79-22-63 36-13 55-44 28 24 25 42 34-52-18-5 2 40 79-58-72-44 17 0 58-19-72 70-27-40-40c-15-9-27-8-37-2l-5 11 42 33-49-17-30 64 14 32-31-23-91 20 90-38 12-24-62-14-34 42 16-45-26-6-59 38 26-30-40-31 52 18 14-16 80 17-3-44 21 47 23 5 23-50c2-10 3-19 3-27l-45 17 41-35c-6-13-19-18-41-12l-76 50-27-18-17 37 4-46-10-6-65 49 0 0 61-75 54 36c11-7 22-15 33-22l-12-42-49-20 64 4 14 47c5-4 11-8 17-11 49-76 57-189 2-176 9-39-24-68-55-81l193 0c-69 37-85 111-50 182z"/>
<glyph unicode="&#57390;" d="M411 159c17-8 27-19 27-30 0-32-82-58-183-58-101 0-182 26-182 58 0 11 10 22 27 30l0 0c-50-13-82-33-82-56 0-41 106-74 237-74 131 0 237 33 237 74 0 23-32 43-81 56z m-272 28c5-6 12-12 20-17l-17-28c47-39 151-44 211 0l-17 23c11 6 21 13 29 23-30 28-18 59 61 96l0 0c0 98-46 217-172 217-125 0-172-114-172-217 75-35 83-73 57-97z m112 73c12-22 21-43 26-65-13-10-36-11-53 0 7 22 14 43 27 65z m94 93c31-6 36-30 31-61l0 0c-31-21-64-39-103-19l-2 34c43-2 66 15 74 46z m-21 13c-26-38-124-38-145 0 46-11 94-10 145 0z m-197-74c-5 31 0 55 31 61 8-31 31-48 73-46l-1-34c-39-20-72-2-103 19z"/>
<glyph unicode="&#57391;" d="M334 401c26 26 31 62 12 81-19 19-55 14-81-12-26-26-31-63-12-82 19-19 55-13 81 13z m62 49c163-148-242-125-370 29 31-45 75-80 124-106l-31 7c30-19 64-35 100-47-57-27-58-115-60-179l41 0 11-144 104 0 10 144 39 0c3 57 0 116-29 153 35-4 70-5 102 0l-27 6c93 7 126 56-14 137z"/>
</font>
</defs>
</svg>
